<?xml version="1.0" encoding="UTF-8"?>
<svg id="Layer_1" data-name="Layer 1" xmlns="http://www.w3.org/2000/svg" width="712.19" height="519.31" viewBox="0 0 712.19 519.31">
  <path d="m164.04,293.16c2.13,1.74,4.09,3.59,5.82,5.48l17.76-47.23-4.59,6.16c-9.16,12.57-16.92,23.06-23.66,32.01,1.67,1.16,3.24,2.36,4.67,3.58Z" style="fill: none;"/>
  <path d="m143.96,377.89h0c-.22-.23-.41-.45-.57-.68-.94-1.36-1.15-3.1-.58-4.62l17.88-49.39c.08-.36.12-.59.12-1.56.01-1.29-.23-2.57-.71-3.82-4.63-2.56-10.63-4.49-17.87-5.75-33.08,42.86-63.84,77.26-87.61,98.03,24.93-8.67,56.46-17.82,93.88-27.24.11-.03.22-.05.32-.08l-4.86-4.89Z" style="fill: none;"/>
  <path d="m452.24,164.17c-.01,2.58-.49,5.01-1.43,7.24-1.1,2.55-2.65,4.58-4.61,6.03l-.08.06c-.11.08-.23.15-.36.2l-3.75,7.82,1.04,1.03c.27.26.83.86,1.34,1.51,1.9.51,3.59,1.35,5.01,2.5.98.66,1.87,1.5,2.67,2.49.07-.26.12-.48.16-.65.44-1.91,1.97-3.4,3.88-3.81l2.48-.55,1.06-1.58c.27-.41.64-.75,1.07-.99l7.81-4.48c.21-.12.44-.22.67-.29l5.32-1.6,4.4-9.98c-1.1-.56-2.05-1.43-2.68-2.51-.3-.48-.52-.96-.71-1.38-.12-.26-.22-.5-.36-.74-.28-.54-.64-1.08-1.03-1.65-.71-.99-1.56-2.01-2.67-3.19-.3-.31-.61-.62-.95-.94-5.39,1.22-10.62,2.1-15.57,2.62-.91.1-1.87.18-2.86.26.1.88.15,1.74.15,2.58Z" style="fill: none;"/>
  <path d="m430.83,237.22c-6.47,9.6-12.08,20.48-16.68,32.32-1.94,5.01-3.47,9.6-4.56,13.72,2.46-3.25,5.03-7.47,7.69-12.61,4.34-7.98,6.9-13.02,8.55-16.86l.04-.1c1-2.21,5.28-11.87,8.38-21.38-1.11,1.49-2.25,3.13-3.42,4.91Z" style="fill: none;"/>
  <path d="m125.97,264.72l-.61-.61s-.03.03-.04.05c-3.37,4.07-6.84,7.04-10.5,8.96,3.64.61,7.26,1.35,10.81,2.22,1.98-2.19,4.04-4.49,6.34-7.07-2.32-.7-4.37-1.91-6-3.55Z" style="fill: none;"/>
  <path d="m88.9,271.09c.53-.01,1.03-.01,1.52-.01,2.01,0,4.09.05,6.22.14l-5.68-5.7-2.06,5.57Z" style="fill: none;"/>
  <path d="m483.67,294.29c-10.79,13.05-21.67,20.63-33.28,23.19-2.36.51-4.55.77-6.51.77-3.18,0-7.71-.73-11.18-4.22l-5.75-5.77c-8.44,11.39-17.86,18.29-28.02,20.52-2.73.61-5.33.91-7.73.91-5.6,0-10.11-1.68-13.41-4.98l-5.28-5.3c-10.36,12.35-21.49,19.9-33.1,22.44-2.21.5-4.36.75-6.39.75-5.01,0-9.24-1.59-12.24-4.61l-8.75-8.78c-.06-.06-.11-.12-.15-.18-3.26-3.37-4.95-8.33-4.9-14.39.04-5.31,2.22-13.69,6.86-26.34l3.43-9.55c-.61,1.23-1.23,2.48-1.86,3.74-10.17,20.23-21.43,37.45-34.42,52.63-13.88,16.23-26.69,25.45-39.16,28.18-2.48.54-4.8.82-6.91.82-4.64,0-8.48-1.29-11.41-3.85-.02-.02-.04-.04-.06-.05-.09-.08-.17-.17-.26-.25l-8.75-8.78h0c-3.74-3.76-5.62-8.71-5.57-14.71.04-5.51,2.22-13.97,6.86-26.62l18.58-51.47c1.31-3.61,1.95-6.46,1.97-8.71.01-1.66-.31-2.57-.6-3.05l-.65-.66-30.6,82.74c-6.04,15.8-8.83,32.76-8.88,39.76-.02,2.08.19,3.33.38,4.02,117.26-22.28,243.55-23.41,267.75-23.41,39.01,0,93.02-16.67,129.37-63.17-1.09.16-2.18.26-3.25.3h-.11c-5.19-.15-9.32-1.71-12.25-4.66l-4.65-4.67c-9.96,11.31-20.02,18.14-29.92,20.31-2.66.58-5.19.88-7.5.88-5.98,0-10.8-1.8-14.34-5.35l-8.75-8.78c-.06-.06-.11-.11-.15-.18-3.94-4.07-5.99-10.25-5.93-17.93.01-1.93.16-4.02.45-6.27-6.61,12.6-14.32,24.27-22.98,34.73Z" style="fill: none;"/>
  <path d="m58.04,204.22l1.78-3.58c.76-1.45,2.44-4.57,5.07-9.12.48-.87.96-1.71,1.42-2.51-8.39,2.38-13.96,5.99-16.41,8.05,3.7,1.03,6.55,4.64,8.14,7.16Z" style="fill: none;"/>
  <path d="m710.65,76.98l-6.18-3.88s-.11-.07-.23-.14c-.12-.07-.29-.18-.5-.3-.17-.1-.38-.22-.6-.35-.4-.23-.9-.51-1.47-.82-1.01-.55-2.27-1.21-3.75-1.94-.24-.12-.48-.23-.72-.35-.32-.15-.64-.31-.98-.47-.3-.14-.6-.28-.91-.42-5.21-2.39-12.32-5.16-20.5-7.04h0c-.34-.08-.71-.14-1.09-.2-.06,0-.12-.02-.18-.03-.37-.05-.76-.1-1.17-.14-.08,0-.16,0-.24-.02-.42-.04-.86-.06-1.32-.08-.07,0-.14,0-.21,0-.47-.02-.96-.03-1.47-.03h-.09c-.31,0-.63,0-.96,0h-.11c-5.33.11-12.49,1-20.48,2.34-1.06.18-2.14.36-3.24.56-11.46,2.03-24.28,4.85-35.7,7.55-.54.13-1.08.26-1.62.38-3.76.89-7.35,1.77-10.66,2.59-.47.12-.94.23-1.4.35-.92.23-1.83.46-2.7.68-.44.11-.87.22-1.29.33-.85.22-1.67.42-2.46.63-.4.1-.79.2-1.17.3-1.14.29-2.22.57-3.22.83-.33.09-.66.17-.97.25-2.21.58-3.98,1.05-5.22,1.38,2.83-1.41,5.65-2.86,8.46-4.34.97-.51,1.94-1.01,2.91-1.54l2.65-1.44,2.44-1.32h0l-5.73.06-22.51.24c-.66,0-1.3,0-1.93,0h-.54c-.64,0-1.27-.02-1.91-.03-.56,0-1.12-.02-1.69-.03h-1.15c-.45,0-.92,0-1.39,0,1.36-.73,2.4-1.31,3.68-2.04.15-.09.3-.17.46-.26l1.21-.7,2.86-1.65h0l-4.63-.03h-.03l-4.7-.03-4.7-.03s-.38,0-1.02-.02c-.29,0-.63,0-1.01-.02-.74,0-1.64-.03-2.63-.05-.8-.02-1.66-.03-2.55-.05h-.12c-.37,0-.74,0-1.11-.02-1.79-.03-3.61-.07-5.2-.1-.68,0-1.31-.02-1.88-.03-.33,0-.64,0-.92-.02h-.19c-.3,0-.57,0-.79,0h-.97c.35-.18.54-.28.71-.37.09-.05.19-.1.29-.16.14-.08.31-.17.56-.31l2.2-1.21,1.8-.99h0l-22.8-1.59c-2.26-.16-4.5-.54-6.69-1.15-10.24-2.84-42.57-11.78-69.52-18.75-.37-.1-.74-.19-1.1-.28-2.66-.69-5.26-1.35-7.78-1.99-.67-.17-1.34-.34-2-.5-1.82-.46-3.58-.9-5.29-1.32-.3-.08-.61-.15-.91-.22-4.75-1.16-9.02-2.17-12.56-2.95-.46-.1-.9-.2-1.33-.29-1.29-.28-2.47-.52-3.53-.72-.7-.13-1.35-.25-1.93-.35-.55-.09-1.04-.16-1.48-.22-.26-.03-.51-.06-.73-.08-.2-.02-.38-.03-.54-.04-2.98-2.26-5.17-3.98-6.82-5.34-2.65-2.18-3.93-3.46-4.9-4.57-.36-.42-.69-.81-1.02-1.22-.45-.55-.96-1.17-1.61-1.9-.65-.73-1.3-1.44-1.96-2.12-.22-.23-.44-.44-.66-.67-.44-.44-.88-.89-1.32-1.32-.27-.26-.54-.5-.81-.75-.4-.37-.79-.74-1.19-1.1-.29-.26-.59-.5-.88-.75-.38-.32-.76-.65-1.15-.96-.31-.25-.63-.48-.94-.72-.37-.29-.74-.58-1.11-.85-.32-.24-.65-.45-.97-.68-.37-.25-.73-.52-1.1-.76-.33-.22-.66-.42-1-.62-.37-.23-.73-.46-1.1-.67-.34-.2-.68-.38-1.02-.56-.37-.2-.73-.41-1.1-.59-.34-.18-.69-.34-1.04-.5-.37-.18-.73-.36-1.1-.52-.35-.15-.7-.29-1.05-.44-.37-.15-.74-.31-1.11-.45-.35-.13-.71-.25-1.07-.37-.37-.13-.74-.26-1.12-.37-.36-.11-.71-.2-1.07-.3-.38-.1-.75-.21-1.13-.3-.36-.09-.72-.16-1.08-.24-.38-.08-.76-.16-1.14-.23-.36-.06-.72-.11-1.09-.17-.38-.06-.77-.11-1.15-.16-.36-.04-.73-.07-1.09-.1-.39-.03-.78-.07-1.17-.09-.36-.02-.73-.03-1.09-.03-.26,0-.53-.02-.79-.02s-.51,0-.77,0c-3.74.08-7.52.73-11.32,1.94-.54.17-1.09.36-1.63.55-4.35,1.57-8.74,3.88-13.11,6.91-.42.29-.83.59-1.22.89-.4.3-.78.61-1.16.93-.75.63-1.46,1.29-2.13,1.97-.33.34-.65.69-.97,1.04-.54.62-1.05,1.26-1.53,1.91-2.53,3.46-4.12,7.44-4.76,11.92-.18,1.28-.28,2.58-.3,3.89-.02,1.32.03,2.65.14,4-1.24,1.03-2.42,2.13-3.52,3.33-.64.7-1.23,1.45-1.8,2.22-1.04,1.38-1.97,2.86-2.7,4.46-.38.83-.7,1.69-.97,2.57-.44,1.42-.74,2.88-.85,4.37-.02.34-.04.69-.04,1.04l-.02,1.76h0l1.65-.53,3.72-1.2.2-.06.15-.11c.29-.21.61-.42.91-.63,1.43.28,2.87.47,4.32.6,1.24.11,2.48.16,3.72.17,7.42,17.84,21.46,35.34,29.21,44.9.19,1.84.54,3.69,1.04,5.53.15.75.32,1.49.51,2.23.72,2.83,1.77,5.56,3.08,8.14,1.29,2.59,2.8,5.05,4.44,7.41.83,1.17,1.71,2.3,2.62,3.4.46.55.92,1.09,1.39,1.63s.95,1.06,1.43,1.59l.06.06c1.92,2.06,3.94,4.03,6.05,5.87,2.16,1.83,4.4,3.56,6.7,5.19s4.66,3.17,7.08,4.62c1.22.7,2.45,1.38,3.7,2.03,1.24.65,2.5,1.28,3.76,1.89,1.27.61,2.54,1.19,3.83,1.75,1.28.56,2.58,1.1,3.88,1.61.47.18.94.33,1.41.5,2.16.79,4.35,1.51,6.55,2.17,1.88.55,3.76,1.07,5.66,1.53.81.2,1.63.39,2.45.56,2.74.55,5.49,1.01,8.24,1.37.92.12,1.84.21,2.76.3.81.08,1.62.14,2.43.2.18.15.38.29.56.44,1.04.87,2.07,1.76,3.05,2.7s1.92,1.92,2.78,2.96c.28.34.54.69.79,1.04.53.74,1.01,1.51,1.34,2.33h0c.1.29.22.57.34.85.05.12.11.23.17.35.08.16.16.31.24.46.08.14.16.28.25.42.07.12.15.23.23.34.1.15.2.3.32.44l-4.69,12.16-5.22,1.57c-.1.03-.2.07-.3.12s-.19.11-.27.17l-7.46,5.84c-.1.08-.19.17-.27.27s-.15.21-.21.32l-1.72,3.42c-.05.1-.09.21-.12.31s-.05.22-.06.33v.06l-.03.36c-2.59,1.83-5.2,3.98-7.84,6.46-.03.02-.05.05-.08.08-.63.59-1.26,1.2-1.9,1.84-.11.11-.23.24-.34.35-.55.55-1.1,1.11-1.65,1.69-.26.27-.53.57-.79.85-.41.44-.81.86-1.22,1.31-.67.74-1.35,1.51-2.03,2.3-10.63,12.31-19.18,25.82-26.15,41.31-.46,1.05-.89,2.15-1.32,3.27-.21.56-.42,1.13-.62,1.71-2.63,7.51-4.55,16.15-6.08,22.99-1.96,3-3.97,5.91-5.99,8.66-2.44,3.31-4.79,6.09-7.12,8.35-.33.32-.67.64-1,.94l27.96-76.07c.41-1.1.25-2.32-.42-3.28-.11-.16-.23-.31-.37-.45l-4.99-5.01c1.07-.36,2.12-.82,3.12-1.36,1.5-.8,2.91-1.79,4.2-2.92.86-.75,1.66-1.57,2.4-2.45,2.6-3.06,4.43-6.78,5.14-10.71.2-1.12.31-2.26.32-3.41,0-.6-.02-1.19-.06-1.76-.26-3.28-1.33-6.13-3.02-8.38-.38-.51-.78-.99-1.22-1.44l-6.79-6.82c-.37-.48-.76-.93-1.19-1.35-.42-.42-.88-.81-1.35-1.16-1.57-1.39-3.47-2.4-5.62-2.94-1.19-.3-2.45-.46-3.77-.46-1.25,0-2.54.14-3.83.43-4.87,1.07-9.23,4-12.39,7.91-.39.49-.77.99-1.12,1.51-.71,1.04-1.34,2.13-1.88,3.26-1.34,2.83-2.11,5.93-2.13,9.08-.01,1.78.23,3.47.69,5.02.77,2.58,2.15,4.8,4,6.5-.14-.13-.3-.26-.43-.39h0l8.75,8.78c.09.09.18.16.27.25l-23.09,5.11c-1.2.26-2.15,1.09-2.59,2.2-.06.16-.11.32-.15.49-.04.17-.06.33-.08.5v.17c0,.11-.01.22,0,.33,0,.07.01.13.02.2.01.1.02.2.04.29.01.07.03.13.05.2.02.09.05.18.08.27.02.07.05.13.08.2.03.09.07.17.11.25.03.07.07.13.1.19.05.08.09.16.14.24.04.06.09.12.13.18.06.07.11.14.18.21.05.06.1.11.16.16l.03.03s-.05-.04-.07-.06l1.09,1.09c.47.69.94,1.88.92,4.01-.01,1.17-.17,2.47-.49,3.92-.03.14-.06.28-.09.42-.34,1.47-.83,3.08-1.48,4.88l-18.53,51.63c-.57,1.56-1.11,3.05-1.6,4.48-.5,1.43-.96,2.79-1.38,4.1-.42,1.3-.81,2.54-1.16,3.72s-.67,2.3-.94,3.37c-.14.53-.27,1.05-.39,1.55-.24,1.01-.45,1.96-.63,2.86-.17.9-.31,1.74-.42,2.54-.16,1.19-.24,2.26-.25,3.23h0c-.05,6.05,1.71,10.76,4.94,13.79-.1-.1-.22-.19-.32-.29h0l8.75,8.78c2.69,2.7,6.49,4.17,11.18,4.17,1.41,0,2.91-.13,4.47-.4.52-.09,1.05-.19,1.59-.31.72-.16,1.43-.33,2.14-.53,7.12-1.96,14.06-5.89,20.74-11.74.67-.58,1.33-1.19,2-1.81,1.99-1.87,3.96-3.91,5.9-6.12.65-.74,1.29-1.49,1.93-2.27.2-.24.4-.5.6-.75l6.45,6.47c1.77,1.78,3.83,2.91,5.96,3.6.27.09.53.17.8.24,1.88.51,3.79.7,5.59.7,2.25,0,4.75-.29,7.4-.88,8.32-1.82,16.12-6.91,23.3-15.15,1.66-1.9,3.28-3.97,4.87-6.21l6.99,7.02c.9.9,1.89,1.58,2.9,2.12,1.53.81,3.13,1.26,4.62,1.47.1.02.21.03.31.04.8.1,1.58.14,2.28.14.9,0,1.85-.06,2.84-.17,1.07-.12,2.2-.31,3.36-.56.87-.19,1.73-.42,2.59-.67,2.63-.76,5.22-1.79,7.79-3.11.68-.35,1.36-.72,2.04-1.11,2.71-1.56,5.4-3.44,8.07-5.64,1.34-1.1,2.67-2.29,4-3.55,2.66-2.53,5.3-5.39,7.95-8.59,8.6-10.4,16.27-22,22.84-34.56.94-1.79,1.85-3.61,2.75-5.44.31-.59.64-1.21.97-1.87.33-.66.68-1.35,1.03-2.07-.38,1.55-.72,3.07-1.01,4.54-.59,2.94-1,5.69-1.21,8.23-.11,1.27-.17,2.49-.18,3.65h0c-.01.96.02,1.89.08,2.8.29,4.52,1.41,8.31,3.27,11.29.74,1.19,1.6,2.26,2.58,3.19-.09-.09-.19-.16-.28-.25l8.75,8.78c.4.4.82.78,1.26,1.13,2.2,1.77,4.89,2.94,8.03,3.46,1.26.21,2.59.32,3.99.32,2.23,0,4.65-.29,7.18-.84,2.49-.55,4.99-1.4,7.49-2.55,1.25-.58,2.51-1.23,3.76-1.96,1.26-.73,2.51-1.53,3.77-2.41,3.15-2.2,6.3-4.86,9.46-7.99,1.89-1.88,3.79-3.92,5.68-6.13l5.79,5.81c.46.47.98.88,1.51,1.27,1.73,1.27,3.82,2.15,6.28,2.6,1.07.2,2.22.31,3.43.35,1.78-.08,3.52-.31,5.23-.66.57-.12,1.13-.25,1.69-.39-2.13,2.87-4.35,5.65-6.63,8.32-2.28,2.68-4.63,5.26-7.05,7.74-3.62,3.73-7.39,7.24-11.27,10.54-6.47,5.5-13.28,10.41-20.3,14.76-28.09,17.36-59.69,25.56-87.72,25.56-10.4,0-35.86.19-70,1.76-2.73.13-5.52.26-8.35.4-1.42.07-2.85.15-4.3.22-4.33.23-8.78.48-13.33.76-15.17.92-31.48,2.1-48.53,3.63-3.41.31-6.85.62-10.31.96-13.86,1.33-28.13,2.89-42.61,4.72-18.1,2.28-36.52,4.98-54.86,8.18-1.83.32-3.67.64-5.5.97-3.66.66-7.32,1.34-10.97,2.04-.03-.12-.07-.24-.11-.35-.01-.04-.02-.09-.04-.13-.05-.12-.11-.28-.18-.46-.08-.23-.16-.53-.23-.88-.18-.87-.33-2.12-.31-3.92.05-6.07,2.11-19.49,6.51-33.23.22-.68.44-1.35.67-2.03.32-.96.66-1.91,1-2.87.26-.72.53-1.44.8-2.16l13.11-35.46,18.62-50.36c.02.24.07.48.13.72.02.08.06.15.09.22.06.15.11.31.18.45.04.09.11.16.16.24.08.13.15.25.24.37.07.08.15.15.22.22.08.08.15.17.24.25-.07-.06-.15-.13-.22-.19l1.04,1.04c.06.08.12.18.18.28.12.2.23.44.33.72.16.43.29.97.36,1.63.05.41.07.87.07,1.38-.01,1.52-.28,3.27-.81,5.28-.32,1.21-.73,2.52-1.25,3.93l-18.58,51.47c-4.58,12.48-6.73,20.77-6.77,26.12h0c-.01.71.02,1.41.07,2.09.1,1.36.32,2.65.65,3.88.83,3.06,2.38,5.7,4.65,7.91-.08-.08-.16-.16-.24-.23h0l2.92,2.93,5.82,5.85c.08.08.16.16.24.23,2.66,2.31,6.16,3.48,10.43,3.48,2,0,4.23-.26,6.59-.78,5.76-1.26,11.62-3.98,17.63-8.18,1.12-.78,2.24-1.59,3.37-2.47,3.2-2.5,6.46-5.43,9.77-8.78,2.49-2.51,5.01-5.26,7.57-8.26,1.78-2.08,3.53-4.21,5.25-6.38.95-1.19,1.88-2.4,2.81-3.62,2.41-3.16,4.76-6.41,7.05-9.75,1.02-1.49,2.03-2.99,3.03-4.52,5.68-8.68,11.01-18,16.07-28.07,3.2-6.35,6.11-12.4,8.73-18.36.87-1.99,1.71-3.96,2.52-5.94,3.22-7.9,5.91-15.79,8.02-24.2.07-.27.1-.54.11-.82.01-.71-.21-1.39-.6-1.99-.06-.09-.1-.18-.16-.26-.09-.12-.2-.24-.3-.34l-7.41-7.44c-.07-.11-.13-.23-.21-.34-.27-.35-.6-.62-.96-.84l-.17-.17s.08.09.12.14c-.02-.01-.03-.02-.05-.03-.08-.08-.17-.15-.26-.23-.64-.57-1.44-.92-2.33-.92-.25,0-.52.04-.78.08l-25.37,5.65c-.46.1-.88.29-1.24.53-.44.3-.8.7-1.07,1.15-.09.16-.18.32-.25.49-.22.55-.32,1.16-.25,1.79v.02c.05.42.1.82.15,1.21.14,1.15.24,2.12.23,2.84-.01,1.62-.13,3.38-.36,5.26-.15,1.25-.35,2.56-.59,3.92-.12.68-.26,1.37-.4,2.07-.29,1.41-.62,2.86-1,4.36-.19.75-.39,1.51-.6,2.28-.42,1.54-.89,3.12-1.39,4.74s-1.06,3.27-1.65,4.96c-.89,2.53-1.86,5.13-2.93,7.79-5.9,14.42-12.93,27.68-20.91,39.41-2.21,3.18-4.23,5.8-6.07,8-.44.53-.87,1.03-1.3,1.51l19.59-53.28,7.2-19.59c.1-.27.16-.56.19-.84.06-.57-.01-1.15-.21-1.68-.1-.27-.24-.53-.4-.77-.12-.17-.25-.33-.4-.47,0,0-4.93-5.04-7.32-7.42l-.03-.04-.02-.02c-.66-.65-1.13-1.1-1.22-1.16,0,0-1.28-1.19-2.68-1.21h0c-.17,0-.35.02-.52.04-.17.03-.34.07-.51.11-.52.15-1.14.32-1.84.5-.61.16-1.28.32-2.01.5-.52.12-1.07.25-1.63.38-1.14.26-2.36.53-3.65.81-.32.07-.64.14-.97.21-.65.14-1.32.28-1.99.42-.67.14-1.36.28-2.04.42s-1.38.28-2.06.42c-1.03.21-2.07.42-3.08.62-3.39.68-6.62,1.31-9.16,1.82l-1.45.28-1.45.28c-.72.14-1.34.49-1.83.98l6.24-16.88,16.88-45.65c.1-.27.17-.56.2-.84.1-.85-.12-1.72-.61-2.45-.12-.17-.25-.32-.39-.47l-7.44-7.47c-.04-.06-.05-.12-.09-.18-.24-.35-.56-.62-.9-.85-.05-.03-.09-.07-.14-.1l-.17-.17s.07.09.11.13c-.02-.01-.04-.03-.05-.04-.23-.24-.5-.44-.78-.61-.54-.33-1.16-.54-1.82-.54-.19,0-.39.02-.58.05s-.38.08-.56.15l-35.74,11.87c-.75.25-1.39.73-1.84,1.39-1.8,2.6-4.13,5.81-6.95,9.57-3.95,5.27-8.88,11.64-14.68,18.97-3.31,4.19-6.91,8.69-10.77,13.49-1.88,2.37-3.79,4.74-5.72,7.12l-1.98-1.98c-.11-.19-.23-.36-.38-.52-.14-.16-.3-.32-.48-.46.09-.39.17-.77.24-1.16.07-.39.13-.78.18-1.17.1-.78.15-1.56.16-2.34h0c.03-3.4-.88-6.03-2.6-7.75l-3.54-3.56-3.53-3.54c-.12-.17-.27-.32-.4-.47-.45-.54-.94-1.03-1.51-1.42-.76-.7-1.66-1.23-2.69-1.59s-2.2-.55-3.5-.55c-1.22,0-2.58.17-4.05.49-.51.11-1.02.24-1.53.38-1.7.48-3.36,1.14-4.98,1.96-1.3.65-2.57,1.4-3.82,2.27-2.35,1.63-4.62,3.64-6.8,6.02-1.74,1.91-3.43,4.05-5.06,6.43-.11.16-.2.31-.3.47-.49.74-.96,1.48-1.41,2.22l-6.43-6.45c-.28-.39-.6-.76-.94-1.09-.34-.34-.71-.65-1.11-.92-.35-.31-.73-.59-1.12-.84-.74-.48-1.56-.88-2.46-1.14l8.32-22c.31-.83.31-1.73.01-2.53-.1-.27-.23-.53-.4-.77-.12-.18-.26-.34-.41-.49l-.44-.44c.94-.04,1.86-.09,2.77-.14,1.82-.1,3.57-.2,5.27-.31,4.24-.27,8.11-.59,11.59-.95,5.58-.57,10.17-1.26,13.77-2.05,34.29-7.78,37.2-26.36,37.28-31.88,0-.23-.01-.45-.05-.67-.12-.66-.43-1.26-.9-1.74l-.03-.03-7.39-7.42c-.05-.09-.11-.17-.17-.26-.1-.14-.21-.28-.33-.41-.1-.1-.21-.19-.33-.28-.11-.08-.23-.16-.36-.23l-.17-.17.02.02h0s.03.04.04.05c.02.02.03.05.05.07h0s-.06-.08-.1-.12h0c-.62-.64-1.5-1-2.4-1h0s-.05.01-.07.01c-.98.02-1.91.46-2.55,1.23-1.01,1.22-2.58,2.57-4.72,3.97-.43.28-.88.56-1.36.84-.95.56-1.99,1.13-3.13,1.69-4.55,2.25-10.61,4.43-18.27,6.12-.46.1-.94.2-1.44.31-1.01.21-2.12.42-3.32.64-3,.54-6.59,1.12-10.68,1.72-1.63.24-3.35.48-5.14.73-5.37.74-11.43,1.5-18.02,2.26-6.24.72-11.83,1.42-16.75,2.09-4.92.67-9.16,1.32-12.72,1.94-2.37.41-4.43.81-6.19,1.2-1.32.29-2.64.6-3.95.94-14.36,3.71-27.45,10.22-37.71,18.62-3.73,3.06-7.09,6.36-10,9.88-1.3,1.57-2.45,3.15-3.48,4.74-.95,1.46-1.78,2.92-2.5,4.39-.18.37-.36.75-.53,1.12-.3.67-.58,1.34-.83,2.01-1.29,3.44-1.97,6.9-1.99,10.36-.02,2.85.41,5.41,1.24,7.62.21.55.44,1.08.7,1.59.77,1.53,1.76,2.85,2.94,3.95-.12-.11-.25-.21-.36-.33h0l4.37,4.39,4.37,4.39c1.44,1.45,3.21,2.53,5.26,3.23,1.73.6,3.66.92,5.77.92.88,0,1.79-.05,2.72-.16.47-.05.94-.12,1.41-.2s.96-.18,1.45-.28c.52-.11,1.02-.24,1.52-.38s.98-.28,1.46-.44c-.4.67-.79,1.34-1.19,1.98-1.59,2.59-3.18,4.98-4.79,7.13-.4.54-.8,1.06-1.21,1.57-4.04,5.08-8.23,8.68-12.82,10.45-.23.09-.44.21-.65.33-.23.14-.44.3-.63.48-.02.02-.04.03-.06.05-.62.61-1.03,1.43-1.13,2.33h0c-.02.18-.02.34-.02.51,0,.06,0,.11,0,.17,0,.11.02.22.03.33,0,.06.03.13.04.19.02.1.04.2.07.29.02.07.04.13.07.19.03.09.06.18.1.27.03.06.06.13.09.19.04.08.09.16.14.24.04.06.08.12.12.18.05.08.11.15.17.22.05.06.09.11.14.17.04.04.08.09.12.13t-.02-.02l8.62,8.65c2,2.7,3.32,5.19,3.92,7.42.09.34.23.66.41.95.18.29.4.56.65.79-.02-.02-.04-.03-.06-.05s-.05-.04-.07-.06h0l1.58,1.58c-5.44,2.61-10.24,5.68-14.22,9.14-6.12,5.29-10.19,11.41-11.87,17.68-.26.97-.46,1.94-.6,2.92-.09.6-.16,1.2-.21,1.81-.04.53-.06,1.05-.06,1.58,0,.8.02,1.58.08,2.33.24,3.03,1,5.73,2.28,8.1.96,1.78,2.21,3.37,3.75,4.78-.23-.21-.46-.41-.67-.62h0l4.37,4.38,4.38,4.4c.33.34.68.66,1.05.98.73.63,1.52,1.22,2.37,1.77,1.7,1.1,3.65,2.04,5.84,2.82.55.19,1.11.38,1.69.55.34.1.69.14,1.03.14.95,0,1.82-.37,2.47-.99.49-.46.85-1.06,1.03-1.73.06-.23.1-.46.12-.7.21-3.27,1.4-6.43,3.47-9.43.26-.37.53-.75.82-1.11.44-.56.92-1.11,1.42-1.66,7.05-7.73,20.29-14.12,38.16-18.04,3.66-.8,7.38-1.48,11.14-2.03-4.45,4.48-8.81,8.76-13.07,12.82-2.13,2.03-4.22,4.01-6.29,5.93-1.03.96-2.06,1.91-3.08,2.84-25.49,23.34-46.26,37.91-58.41,40.57-.08.02-.15.03-.23.04-1.32.28-2.56.47-3.71.54-.4.03-.8.04-1.18.04-.87,0-1.7-.07-2.98-.28-.18-.03-.37-.06-.57-.1-1.22,0-2.34.63-3.01,1.65-.2.31-.33.63-.42.97-.15.53-.2,1.08-.1,1.63.05.3.14.59.27.87.74,1.62,1.44,3.46,2.1,5.47.55,1.65,1.07,3.41,1.56,5.3.22.84.43,1.69.63,2.57.41,1.76.79,3.6,1.14,5.51.22,1.01.43,2,.62,2.97,1.15,5.85,1.8,11.09,1.88,15.42,0,.72,0,1.42,0,2.08h0s0,.07,0,.1c0,.95.35,1.83,1.01,2.49.1.1.22.19.33.28-.03-.02-.06-.05-.09-.07-.07-.05-.14-.1-.2-.16h0l6.82,6.85c-.72.37-1.35.7-1.9,1-.28.15-.54.29-.78.42s-.46.26-.67.37c-.5.29-.92.68-1.22,1.13-.41.6-.62,1.32-.6,2.06,0,.19.02.38.06.57.09.55.32,1.06.64,1.5.11.14.23.28.35.41h0s8.75,8.77,8.75,8.77c.07.07.15.13.23.19.25.21.52.39.82.53.29.13.6.24.92.29,1.24.2,2.45.41,3.64.64,17.92,3.47,31.31,10.68,41.3,19.26,3.89,4.54,7.04,9.22,9.59,13.77.33.59.65,1.18.97,1.76,2.05,3.83,3.67,7.54,4.96,10.94.23.6.45,1.2.66,1.78.49,1.37.92,2.68,1.3,3.92.23.74.43,1.44.62,2.13.38,1.35.69,2.59.95,3.7.09.4.18.78.26,1.15.05.22.09.44.14.65.13.64.24,1.21.33,1.72.03.14.05.27.07.4s.05.27.07.38c.02.1.05.19.07.28.11.45.31.85.57,1.21.14.18.28.36.45.52-.03-.03-.07-.05-.1-.09h0l4.37,4.38,4.38,4.4c.16.16.34.31.53.44.23.16.49.28.76.38.39.14.8.23,1.23.23.76,0,1.48-.23,2.1-.67,13.44-9.58,26.6-18.4,39.56-26.53,1.47-.92,2.94-1.84,4.41-2.75,6.22-3.84,12.38-7.52,18.5-11.05,1.64-.95,3.29-1.88,4.92-2.81,9.67-5.46,19.22-10.55,28.69-15.28,1.89-.95,3.78-1.88,5.67-2.8,5.21-2.53,10.38-4.96,15.54-7.29,2.56-1.15,5.11-2.28,7.65-3.38,2.39-1.04,4.78-2.06,7.16-3.05,1.83-.76,3.65-1.51,5.48-2.25,72.9-29.5,141.74-39.29,215.62-42.3,44.1-1.8,81.64-12.17,112.02-30.88,1.52-.94,3.03-1.9,4.52-2.88.77-.51,1.53-1.02,2.29-1.54,5.41-3.69,10.58-7.66,15.5-11.92,3.49-3.02,6.75-6.09,9.8-9.19h.01c21.38-21.69,32.46-44.42,39.43-58.72,2.82-6.12,5.78-12.94,8.58-19.6.62-1.48,1.24-2.95,1.84-4.4,3.62-8.71,6.83-16.78,8.93-22.14,1.58-4.01,2.53-6.5,2.57-6.59l30.26-75.61c.11-.28.19-.56.23-.85s.05-.58.02-.87-.09-.57-.19-.84-.23-.53-.4-.78c-.12-.17-.25-.34-.4-.49l-7.43-7.46c-.03-.06-.05-.12-.09-.17-.3-.44-.69-.79-1.13-1.05l-.05-.05-.05-.05h0s.03.04.04.05c-.15-.16-.32-.3-.5-.42-.02-.01-.03-.02-.05-.04-.18-.12-.38-.22-.6-.3-.03-.01-.06-.03-.09-.04-.22-.08-.46-.14-.72-.18-.04-.01-.09-.01-.13-.02-.27-.04-.55-.06-.87-.06h-.06c-.12,0-.23,0-.36.01h0l-25.35,5.6c-.15.03-.3.08-.45.13-.2.07-.39.17-.58.28-.14.08-.27.17-.39.27-.55.43-.99,1-1.22,1.68-.09.28-4.97,14.6-10.21,29.66-.15.44-.31.89-.46,1.33-.93,2.66-1.86,5.34-2.78,7.95-.76,2.18-1.52,4.31-2.24,6.35-.44,1.23-.86,2.42-1.28,3.58-.14.39-.27.77-.41,1.14-.27.75-.53,1.49-.79,2.2-.26.71-.51,1.4-.75,2.07-.49,1.33-.94,2.56-1.36,3.68-.62,1.67-1.16,3.07-1.59,4.12-.6,1.49-1.35,3.19-2.24,5.04-.29.62-.6,1.25-.93,1.89-1.83,3.65-4.12,7.71-6.74,11.67-1.34,2.03-2.78,4.03-4.29,5.93-1.79,2.26-3.67,4.39-5.64,6.25l27.65-75.48c.1-.27.17-.56.2-.84.1-.85-.12-1.72-.61-2.44-.11-.16-.23-.3-.36-.43l-7.47-7.5c-.04-.06-.06-.13-.1-.19-.28-.4-.65-.72-1.06-.98l-.12-.12s.02.03.04.04c-.15-.15-.31-.29-.49-.41-.02-.01-.04-.03-.05-.04-.18-.11-.37-.21-.59-.29-.03-.01-.07-.03-.1-.04-.22-.08-.45-.14-.71-.18-.04-.01-.09-.01-.13-.02-.27-.04-.55-.06-.86-.06h-.06c-.13,0-.27,0-.41.01h-.01l-32.09,7.36c-.17.04-.34.09-.5.15-1.12.44-1.99,1.41-2.26,2.61-.04.17-.07.34-.08.5v.15c-.01.12-.01.23-.01.35,0,.07.02.13.02.19.01.1.02.2.04.29.01.07.04.14.05.2.02.09.04.18.07.27.02.07.06.13.08.2.03.08.06.17.11.25.03.07.08.13.12.2.04.08.09.15.14.22.04.06.1.12.14.18.06.07.11.14.17.2.05.06.12.11.17.16.04.03.07.07.11.1-.07-.06-.14-.12-.2-.18h0l.97.97h0c.67.89.98,2.07,1.09,3.3.02.2.03.41.04.61s.01.41.01.61c-.01,1.02-.14,2.01-.29,2.82-.09.49-.19.91-.29,1.23l-13.6,38.56-4.77,9.98-4.77,9.97c-.61.97-1.24,1.95-1.88,2.92-1.92,2.93-3.96,5.87-6.1,8.76-.87,1.22-1.71,2.34-2.53,3.38-.84,1.07-1.66,2.05-2.45,2.95-.48.55-.95,1.06-1.41,1.55-.49.51-.96.99-1.43,1.44-.93.9-1.83,1.68-2.69,2.35-.43.34-.85.64-1.27.93.19-1.12.43-2.29.71-3.5s.6-2.47.96-3.77c1.08-3.89,2.53-8.17,4.34-12.8,1.21-3.08,2.58-6.32,4.1-9.7.76-1.69,1.56-3.41,2.4-5.17,1.02-2.16,2.03-4.31,3.03-6.44,7.02-14.87,13.66-28.6,19.73-38.29.09-.14.16-.28.23-.43s.12-.3.17-.45c.09-.31.14-.62.15-.94s-.02-.63-.1-.94c-.07-.31-.19-.61-.34-.89-.15-.27-.33-.51-.54-.73l-7.42-7.45c-.07-.12-.17-.21-.25-.32-.29-.4-.64-.74-1.06-.98l-.02-.02h0s.01.01.02.02h0c-.17-.17-.36-.32-.57-.45-.07-.04-.16-.07-.23-.11-.15-.08-.31-.16-.49-.22-.1-.04-.23-.06-.34-.09-.17-.04-.35-.09-.54-.12-.14-.02-.29-.02-.43-.03-.15-.01-.28-.03-.44-.03-.11,0-.22,0-.33.01h0l-33,7.33-2.66-2.67-2.67-2.68c-.05-.08-.07-.16-.13-.23-.14-.2-.3-.37-.48-.53s-.37-.3-.57-.42l-.12-.12h0s.02.02.03.04c-.15-.15-.32-.29-.5-.41-.02-.01-.03-.03-.05-.04-.18-.11-.38-.21-.6-.29-.03-.01-.06-.03-.09-.04-.22-.08-.46-.14-.72-.18-.04-.01-.09-.01-.13-.02-.27-.04-.55-.06-.87-.06h-.06c-.12,0-.25,0-.38.01l-3.7.84-3.7.84-7.96,1.81-7.96,1.81c-1.43.32-2.49,1.45-2.75,2.85-.04.2-.06.4-.06.61-.06,3.37-.33,7.06-.8,10.97-.78,6.51-2.1,13.62-3.83,20.8-2.77,11.5-6.59,23.19-10.95,32.98-1.39,2.8-2.77,5.48-4.16,8.07-.69,1.29-1.39,2.56-2.08,3.8-3.48,6.22-7,11.83-10.64,16.97-1.06,1.5-2.12,2.87-3.17,4.15-.67.82-1.35,1.6-2.02,2.32-.57.62-1.15,1.2-1.73,1.75l27.95-76.03c.08-.22.13-.45.16-.68.03-.21.04-.41.03-.61.01-.01.02-.01.02-.02l-.03-.05c-.01-.24-.04-.47-.1-.71-.02-.11-.05-.22-.08-.32-.03-.09-.06-.17-.1-.26-.09-.22-.19-.43-.33-.63h0c-.11-.16-.23-.31-.37-.45l-.39-.39-4.61-9.26c-.09-.26-.23-.49-.42-.68l-1.63-2.25,5.03-9.17.06.11.3-.21c1.97-1.38,3.53-3.18,4.74-5.19.25-.42.5-.85.72-1.29.96-1.9,1.59-3.96,1.91-6.06.11-.7.18-1.4.21-2.11.18-2.83-.21-5.65-.86-8.38-.06-.23-.13-.45-.19-.68,1.86-.73,3.72-1.48,5.56-2.26.3-.13.6-.25.89-.38.86-.37,1.71-.74,2.57-1.11.25-.11.49-.22.73-.33,1.84-.82,3.67-1.65,5.49-2.51.01,0,.02-.01.03-.01.88-.42,1.75-.84,2.62-1.26.26-.13.53-.26.79-.39,2.68-1.32,5.32-2.67,7.93-4.06.23-.12.45-.24.68-.36.84-.45,1.67-.9,2.5-1.35.19-.1.37-.21.56-.31,1.68-.92,3.33-1.85,4.97-2.79.1-.06.2-.11.3-.17.79-.45,1.56-.9,2.34-1.36.29-.17.58-.34.87-.51,2.37-1.39,4.69-2.8,6.96-4.22.33-.2.66-.41.99-.61.67-.42,1.34-.84,2.01-1.26.35-.22.7-.44,1.04-.67,1.11-.71,2.2-1.42,3.29-2.13.4-.26.8-.52,1.2-.78.57-.38,1.13-.75,1.7-1.13.45-.3.89-.6,1.33-.89.52-.35,1.04-.7,1.56-1.05.84-.57,1.67-1.14,2.49-1.71.45-.31.89-.62,1.33-.93.51-.36,1.02-.71,1.53-1.07.43-.3.86-.6,1.28-.9.63-.45,1.25-.89,1.87-1.34.4-.29.81-.58,1.21-.87.69-.5,1.38-1,2.06-1.5.32-.24.64-.47.96-.71.6-.44,1.19-.88,1.78-1.32.25-.19.51-.38.76-.56.8-.6,1.58-1.19,2.35-1.77.21-.16.41-.31.62-.47.61-.47,1.21-.93,1.8-1.38.22-.17.45-.34.66-.51.74-.58,1.48-1.15,2.19-1.7,0,0,.01,0,.01,0,.07,0,.15,0,.23.02.06,0,.12,0,.19,0,.08,0,.16,0,.24.02.08,0,.16,0,.24.02.1,0,.2,0,.3.02.09,0,.18,0,.27.02.11,0,.23,0,.35.02.08,0,.17,0,.25.02.13,0,.26.02.4.02.15,0,.31.02.47.03s.33.02.5.03.34.02.52.03c.12,0,.24,0,.36.02.16,0,.31.02.47.03.15,0,.3.02.45.02.17,0,.34.02.52.03.13,0,.26,0,.4.02.26,0,.52.03.79.04.08,0,.15,0,.23,0,.34.02.69.03,1.05.05.14,0,.29,0,.43.02.23,0,.45.02.68.03.18,0,.37.02.55.02.21,0,.42.02.63.03.19,0,.38.02.58.02.25,0,.5.02.75.03.17,0,.34,0,.51.02.33,0,.67.03,1.01.04.2,0,.4,0,.61.02.34,0,.68.02,1.03.04.18,0,.36,0,.54.02.3,0,.6.02.91.03.19,0,.38,0,.57.02.32,0,.63.02.96.03.19,0,.38,0,.57.02.37,0,.75.02,1.13.03.14,0,.28,0,.42,0,.52,0,1.06.03,1.6.04.12,0,.25,0,.38,0,.42,0,.84.02,1.26.03.2,0,.4,0,.61,0,.37,0,.75,0,1.13.02.21,0,.42,0,.63,0,.39,0,.77,0,1.17.02.2,0,.4,0,.61,0,.53,0,1.06,0,1.6.02h.18c.61,0,1.22,0,1.85.02h.56c.44,0,.88,0,1.33,0h3.52c.71,0,1.43,0,2.15,0h.66c.91,0,1.84,0,2.77-.02.19,0,.38,0,.57,0,.77,0,1.55-.02,2.33-.03.27,0,.54,0,.82,0,.97-.02,1.94-.03,2.93-.05,5.15-.11,10.21-.27,15.19-.5,1.66-.08,3.31-.16,4.95-.25,3.17-.17,6.31-.37,9.41-.6,1.7-.12,3.4-.25,5.08-.39,4.74-.39,9.38-.84,13.93-1.36,7.58-.85,14.88-1.88,21.89-3.06,1.4-.24,2.79-.48,4.17-.73l6.17-1.12h0l-5.07-3.69-13.38-9.74,14.97-2.19,7.09-1.03h0Zm-440.08,158.07l.27-.04c.61,0,1.08.6.85,1.23l-29.27,79.65c-1.65,4.37-2.47,8.02-2.49,10.43-.02,2.83,1.03,4.19,3.29,4.19.52,0,1.11-.07,1.76-.22,5.63-1.24,12.63-7.85,20.76-19.52,8.12-11.93,15.19-25.24,21.18-39.92,6-14.95,9.06-27.53,9.13-36.36.01-1.16-.18-2.67-.4-4.4-.06-.47.26-.92.72-1.02l25.38-5.65.19-.02c.58,0,1.04.55.89,1.14-3.89,15.51-9.84,29.6-19.07,47.96-9.5,18.92-20.61,36.32-33.84,51.79-13.23,15.46-25.34,24.27-36.88,26.8-2.21.48-4.21.72-6.02.72-3.69,0-6.54-.98-8.69-2.84-2.92-2.83-4.5-6.76-4.46-11.84s2.25-13.32,6.62-25.23l18.57-51.47c1.37-3.77,2.2-7.15,2.22-10.1.02-3.2-.86-5.47-2.66-6.89-.63-.49-.43-1.49.35-1.65,7.07-1.41,25.61-4.96,31.6-6.74Zm187.91-143.51c-.05-.37-.19-.69-.32-1.02-.12-.33-.27-.63-.45-.91-.18-.31-.38-.6-.58-.88,1.76.25,3.56.39,5.38.31,1.3-.07,2.62-.23,3.94-.66.33-.11.66-.23.99-.4.33-.14.65-.33.97-.56.32-.19.61-.5.89-.78.25-.32.49-.68.64-1.07.13-.4.27-.79.26-1.19.05-.41.01-.78-.08-1.14-.05-.37-.19-.69-.32-1.02-.12-.33-.27-.63-.45-.91-.19-.33-.4-.63-.62-.92,1.46.17,2.94.25,4.44.19,1.09-.06,5.37-.63,7.16-2.34,12.21.55,29.84-3.38,36.1-5.62,3.14-1.09,6.23-2.33,9.28-3.65,1.75-.75,2.28-.96,3.99-1.8.1,0,26.33.98,26.33.98-7.78,3.84-15.76,7.36-23.81,10.6-9.56,3.78-19.27,7.2-29.17,9.94-4.94,1.4-9.92,2.63-14.95,3.64-5.02,1.04-10.09,1.87-15.19,2.41-5.25.58-10.54.86-15.83.76.2-.17.39-.35.57-.53.25-.32.49-.68.64-1.07.13-.4.27-.79.26-1.19.06-.44.02-.81-.07-1.17Zm-10.14,68.76c.04,1.31,0,2.6-.14,3.84-.1.99-.31,1.95-.59,2.86-.26.91-.58,1.79-1,2.6-.41.81-.93,1.55-1.48,2.23-.27.34-.56.66-.86.95-.14-.03-.29-.06-.43-.1-.51-.14-1.01-.32-1.49-.51-.95-.38-1.79-.89-2.44-1.53-.33-.32-.61-.67-.86-1.05-.12-.19-.23-.39-.33-.6-.13-.25-.16-.3-.4-.82-.8-1.69-1.81-2.9-2.83-4.02-1.52-1.56-3.14-2.87-4.82-4.03,1.67.06,3.34.08,5,.06,3.29.22,6.58.32,9.84.25.95-.04,1.89-.09,2.83-.13Zm10.63-.98c.97-.14,1.94-.3,2.91-.46.37-.06.75-.11,1.12-.18,1.26-.22,2.52-.46,3.78-.71.06-.01.12-.02.18-.04,1.34-.27,2.67-.56,4.01-.87.53.51,1.07,1.01,1.58,1.54h0c.24.25.46.51.69.77.66.73,1.29,1.48,1.87,2.27.08.11.17.2.24.31.21.3.41.6.6.9.19.31.38.62.54.94.17.31.31.64.47.98.15.34.32.68.53,1.02,0,.01.01.01.01.02.09.15.19.3.3.44.05.07.11.13.16.19.06.08.13.16.2.23.08.08.16.16.24.24.05.05.1.1.15.15.1.09.21.17.31.25.04.03.07.06.11.08.12.09.25.17.38.24.02.01.05.03.07.04.14.08.29.15.44.22.01.01.03.01.04.02.16.07.32.13.49.17h.01c.17.05.35.09.52.12l-5.35,12.11-2.99.9-2.99.9c-.12.04-.24.09-.36.15l-7.81,4.48c-.11.07-.22.14-.31.23-.1.09-.18.19-.25.3l-.65.98-.74,1.11-3.07.68c-.68.14-1.28.48-1.76.95-.24.23-.45.5-.61.79-.17.29-.29.61-.37.94-.01.04-.03.1-.04.15-.07.27-.15.59-.25.98-.09.33-.18.68-.3,1.09-.09.32-.18.66-.29,1.02l-1.75-1.76c-.37-.48-.76-.92-1.19-1.33-.21-.2-.43-.4-.66-.58s-.47-.36-.71-.52h0c-.32-.26-.65-.5-1-.72-.1-.07-.21-.13-.32-.19-.26-.16-.52-.3-.8-.44-.12-.06-.24-.12-.36-.17-.29-.13-.59-.25-.9-.37-.11-.04-.21-.08-.32-.12-.42-.14-.85-.27-1.3-.37-.37-.54-.86-1.09-1.2-1.46t-.02-.02c-.11-.11-.2-.21-.27-.28h-.01s-1.81-1.79-1.81-1.79l2.35-4.9,2.25-4.68c.11.01.22.03.33.04h.11s.08-.05.08-.05c.06-.05.11-.1.17-.15,1.33-1.03,2.39-2.32,3.2-3.74.28-.5.53-1.01.76-1.53.67-1.58,1.07-3.25,1.23-4.95.05-.56.08-1.13.08-1.7h0c0-.66-.03-1.31-.09-1.96,0-.05-.01-.1-.02-.15-.06-.62-.14-1.24-.24-1.85h0c1.48-.1,2.95-.22,4.4-.37h.01c1.41-.16,2.8-.34,4.19-.53Zm-31,29.17l6.16-2.55,4.85-11.8c.95.67,2,1.18,3.1,1.53l-5.14,10.72,1.4,1.38-2.8-.15-5.46,2.69-3.5,6.29v4.14l-.65,1.37-.26-1.97-.28-5.61.9-2.74-5.08,3.16-1.47,3.92-.34,2.64-.27.9-.2-.9.34-4.36,1.54-3.06,7.16-5.6Zm-79.05,3.68c.07-8.84,6.82-17.27,15.39-19.15,1.13-.25,2.22-.37,3.27-.37,6.89,0,11.69,5.19,11.63,12.86-.07,8.56-6.56,16.93-15.14,18.82-1.13.25-2.24.37-3.3.37-6.92.01-11.9-5.11-11.85-12.53Zm-234.23,26.98c-.02,2.9-1.87,8.37-5.56,16.54-3.69,8.04-5.53,13.15-5.55,15.45,0,1.7.64,2.51,1.9,2.51.26,0,.55-.04.86-.1,2.67-.59,5.47-2.89,8.27-7,1.07-1.52,2.08-3.1,3.06-4.7.05-.13.09-.26.12-.39.61-6.94,3.61-14.32,8.99-22.32,6.11-8.94,12.91-14.28,20.54-15.96,1.29-.29,2.45-.42,3.48-.42,4.31,0,6.41,2.46,6.37,7.42-.04,5.31-2.38,10.41-7.01,15.4-4.51,4.85-9.48,7.86-14.93,9.07-1.23.26-2.36.42-3.41.42-.28,0-.57-.01-.84-.04h-.07c-.43,0-.82.34-.9.78-.29,1.85-.48,3.42-.49,4.67-.04,4.79,1.85,7.19,5.59,7.19.78,0,1.64-.1,2.57-.3,5.32-1.18,10.43-4.35,15.18-9.61,4.38-4.87,7.65-9.38,9.57-13.5.16-.35.5-.54.84-.54.18,0,.35.05.5.16l1.69,1.13c.38.25.51.75.32,1.16-3.4,7.23-7.93,13.67-13.71,19.25-5.84,5.74-11.9,9.37-18.32,10.78-1.59.35-3.09.52-4.47.52-5.29,0-8.95-2.47-10.62-6.8-.14-.4-.5-.6-.86-.6-.27,0-.54.12-.74.39-.92,1.26-1.87,2.49-2.86,3.69-4.51,5.44-9.12,8.64-14.08,9.72-.9.2-1.72.3-2.48.3-4.14,0-6.19-2.85-6.16-7.44.03-3.75,1.88-9.57,5.45-17.72,3.69-8.17,5.53-13.27,5.55-15.33,0-1.72-.67-2.61-1.96-2.61-.25,0-.52.02-.8.08-3.99.88-8.37,6.29-13.38,16.16l-.05.11-11.28,30.45c-.11.29-.37.52-.67.58l-9.37,2.06-.19.02c-.61,0-1.08-.61-.86-1.23l33.58-90.48c.18-.49.64-.82,1.17-.83,1.88-.05,6.34-.14,8.29-.29h.06c.64,0,1.08.64.85,1.24l-15.38,40.68c-.26.67.28,1.23.86,1.23.24,0,.48-.1.69-.33,3.55-4.02,7.3-6.48,11.29-7.36.82-.18,1.62-.27,2.37-.27,4.12,0,7.03,2.63,6.99,7.01Zm-5.81,54.61c2.05-.48,4.03-1.26,5.96-2.36,1.93-1.1,3.82-2.52,5.67-4.26,1.23-1.16,2.45-2.47,3.66-3.93.2-.24.4-.5.6-.75.16-.2.32-.39.48-.6l1.79,1.8h.01c.25.26.51.5.78.73.54.45,1.12.86,1.73,1.22,1.54.9,3.3,1.49,5.25,1.75-1.42,1.6-2.85,3.2-4.29,4.81s-2.89,3.23-4.37,4.85c-1.43-.36-2.85-.7-4.29-1.01-4.3-.94-8.63-1.69-12.98-2.25Zm-18.46-1.18h0c-1.23,0-2.46.02-3.69.05l3.64-9.84c.13.15.27.29.41.42-.04-.04-.09-.08-.14-.12h0l8.75,8.78c.42.42.9.79,1.41,1.1-3.45-.26-6.92-.39-10.38-.39Zm-58.37-2.53c-2.73-3.36-5.22-5.72-7.41-7.15-.78-.51-.61-1.66.26-2,10.76-4.14,19.07-16.57,29.25-37.01l4.88-9.9,5.32-10.75c1.08-2.02,2.74-5.09,5.02-9.03,2.28-4.09,4.26-7.23,5.77-9.2,2.45-3.29,5.85-7.14,9.28-9.94.85-.69.34-2.04-.73-2.04h-.06c-9.92.53-16.23,1.51-22.62,2.9-22.23,4.89-32.81,16.34-32.89,27.29-.04,5.11,2.44,8.25,6.9,8.25.77,0,1.6-.1,2.48-.29,4.87-1.06,8.51-4.44,9.63-8.66.15-.58.65-.89,1.14-.89.42,0,.85.24,1.04.72.46,1.11.69,2.44.68,4-.03,4.05-1.71,8.15-4.9,12.3-3.17,4.14-7.54,6.74-13.41,8.03-1.79.4-3.46.58-5,.58-8.21,0-12.95-5.36-12.89-14.31.05-7.05,2.96-13.97,8.71-20.93,11.5-13.9,30.32-24.17,50.14-28.52,6.01-1.32,16.63-3.01,35.39-5.19,18.77-2.17,31.83-4.14,38.88-5.68,16.01-3.52,25.29-9.1,28.97-13.54.16-.18.36-.26.56-.26.36,0,.71.28.71.72-.08,5.77-3.32,22.05-35.16,29.28-8.96,1.96-24.32,3.26-45.9,3.85-.19,0-.39.05-.56.14-6.23,3.42-11.75,11.49-16.72,24.4l-13.77,35.65c-3.37,8.67-6.87,16.63-10.37,23.53-3.51,6.91-6.39,11.89-8.67,15.22-1.86,2.75-3.93,5.62-6.28,8.76-.24.33-.58.47-.93.47-.48,0-.96-.3-1.1-.84-.84-3.05-2.74-6.39-5.64-9.96Zm21.75-68.82l-.1-.1c-.24-.23-.49-.46-.74-.68-.04-.03-.07-.06-.11-.09-.26-.21-.52-.42-.79-.61-.04-.03-.08-.05-.12-.08-.27-.19-.55-.36-.84-.51-.04-.02-.08-.04-.12-.07-.29-.15-.59-.28-.89-.4-.04-.02-.09-.03-.13-.05-.31-.11-.62-.19-.94-.26-.04-.01-.09-.01-.13-.02-.32-.06-.65-.09-.98-.09h-.05c-.14,0-.27,0-.41.01h0c-.05.01-.09,0-.13,0-.03,0-.05-.01-.07-.01-.02-.01-.04-.02-.06-.03s-.03-.02-.04-.03-.02-.03-.03-.05,0-.03,0-.05v-.07s0-.05,0-.07c0-.03.02-.06.04-.1,0-.03.02-.06.04-.09.02-.04.05-.08.07-.12.02-.03.04-.06.06-.1.03-.05.07-.1.11-.15.03-.04.05-.07.08-.11.04-.05.09-.11.14-.17.03-.04.07-.08.1-.12.06-.06.12-.13.18-.19.04-.04.08-.08.12-.13.07-.07.14-.14.22-.21.05-.04.09-.09.14-.13.08-.08.17-.15.26-.23.05-.05.1-.09.16-.14.09-.08.19-.16.29-.25.06-.05.12-.1.18-.15.11-.09.22-.17.33-.26.07-.05.13-.1.2-.16.12-.09.24-.18.36-.27.07-.05.15-.11.22-.17.13-.09.26-.19.39-.28.08-.06.16-.11.24-.17.14-.09.28-.19.42-.28.09-.06.18-.12.27-.18.14-.09.3-.19.45-.29.1-.06.19-.12.29-.19.15-.1.32-.19.48-.29.11-.06.21-.13.32-.19.16-.1.33-.19.5-.29.11-.07.23-.13.34-.2.17-.1.35-.19.52-.29.12-.07.24-.13.37-.2.18-.09.36-.19.55-.28.13-.07.26-.14.4-.21.19-.09.38-.19.57-.28.14-.07.28-.14.42-.2.2-.09.4-.19.6-.28.15-.07.29-.14.44-.21.2-.09.41-.18.62-.27.16-.07.31-.14.47-.21.21-.09.43-.18.64-.27.16-.07.32-.13.49-.2.22-.09.44-.17.66-.26.17-.07.34-.13.52-.2.22-.08.44-.16.67-.24.19-.07.37-.14.56-.2.23-.08.47-.16.71-.24.19-.06.37-.13.56-.19.24-.08.5-.15.74-.23.19-.06.38-.12.58-.18.24-.07.49-.14.74-.21.21-.06.41-.12.63-.18.25-.07.5-.13.76-.2.22-.06.43-.11.65-.17.32-.08.66-.15.99-.23.15-.04.31-.07.46-.11h0c-.51.81-1.04,1.68-1.58,2.61-.55.93-1.11,1.92-1.69,2.97-1.31,2.26-2.39,4.18-3.23,5.7-.21.38-.41.74-.59,1.07-.54,1-.96,1.78-1.24,2.32l-1.01,2.04-2.01,4.06h0s0-.04-.03-.07t-.02-.05c-.03-.06-.08-.15-.13-.26,0-.01,0-.02,0-.03-.06-.12-.13-.26-.22-.41,0-.02,0-.03-.02-.04-.09-.16-.19-.34-.3-.53l-.03-.06c-.11-.2-.24-.41-.37-.63,0-.02-.03-.04-.04-.07-.14-.22-.29-.46-.44-.7-.02-.03-.04-.05-.05-.08-.16-.24-.33-.49-.51-.74-.02-.03-.04-.06-.06-.09-.18-.25-.37-.51-.57-.76-.03-.03-.05-.07-.08-.1-.2-.25-.41-.51-.63-.76-.03-.03-.06-.07-.09-.1-.23-.19-.46-.44-.7-.68ZM5.07,377.41c-.27-.61.18-1.3.82-1.3h.19c1.05.25,2.17.36,3.36.36,1.76,0,3.66-.24,5.69-.69,18.8-4.13,55.31-34.35,95.33-76.43.55-.58.14-1.57-.66-1.57-12.31.1-23.92,1.45-34.81,3.84-26.41,5.8-44.97,17.25-45.98,32.71-.04.51-.45.89-.92.89l-.26-.04c-9.66-2.93-14.58-8.88-14.51-18.15.11-14.98,16.03-31.04,46.05-37.64,10.59-2.32,21.22-3.5,31.87-3.5,12.06,0,24.12,1.52,36.09,4.62l.23.02c.25,0,.51-.11.68-.3,17.42-19.22,34.29-38.85,50.39-59.1,16.32-20.23,27.07-34.29,32.54-42.2.11-.17.27-.29.46-.35l35.74-11.89.29-.05c.6,0,1.08.61.86,1.23l-55.91,151.18c-6.01,15.75-9.08,33.47-9.14,41.22-.02,2.73.29,4.9.94,6.37.24.54-.03,1.18-.62,1.31-10.72,2.29-22.99,4.13-35.09,7.83l-.28.04c-.6,0-1.07-.59-.85-1.22l17.97-49.61c.22-.9.28-1.4.29-2.73.09-11.67-12.72-19.73-32.73-22.8h-.13c-.29-.01-.58.12-.75.35-51.03,66.32-95.06,110.84-117.73,118.95l-.31.05c-.51,0-.94-.4-.92-.94.14-5.3-.65-12.42-2.56-21.11-1.58-8.45-3.57-14.83-5.63-19.35Zm110.35,15.67c-12.71,3.49-23.94,6.76-33.85,9.81-1.98.61-3.91,1.21-5.78,1.8-.94.3-1.86.59-2.78.88-1.82.58-3.6,1.15-5.32,1.71s-3.4,1.11-5.02,1.66c-5.69,1.9-10.78,3.68-15.33,5.34,3.8-3.08,7.81-6.57,12.02-10.45.84-.78,1.69-1.57,2.55-2.37,1.72-1.61,3.46-3.29,5.24-5.02,2.66-2.6,5.39-5.33,8.19-8.2,19.55-20.05,42.14-46.49,66.26-77.8,7.1,1.17,13.08,2.98,17.77,5.3.67.33,1.31.67,1.93,1.03.17.39.32.78.45,1.18.38,1.19.58,2.43.57,3.7-.01.71-.02,1.09-.07,1.42-.01.1-.03.19-.05.29-.02.09-.04.17-.06.27l-17.91,49.47c-.1.27-.17.55-.2.83-.1.85.12,1.72.61,2.43.15.21.32.39.5.56-.03-.02-.06-.05-.08-.07-.01-.01-.02-.01-.02-.02h0l3.37,3.38,3.37,3.38c-.96.24-1.93.47-2.89.71-7.59,1.91-14.79,3.77-21.6,5.58-4.11,1.09-8.06,2.16-11.87,3.2Zm375.16-153.71c9.1-20.39,15.53-47.9,15.83-65.84,0-.42.29-.78.72-.88,3.43-.77,18.4-4.17,23.32-5.28l.22-.02c.6,0,1.07.6.86,1.2-1,2.89-2.09,5.42-3.11,7.65-.28.63.2,1.28.83,1.28l.2-.02,43.98-9.76.21-.02c.69,0,1.15.77.76,1.41-6.97,11.15-14.43,26.95-22.92,44.99-8.97,18.81-13.36,33.13-13.43,42.77-.04,5.19,1.65,7.72,5.23,7.72.66,0,1.4-.1,2.21-.27,5.36-1.18,11.55-6.55,18.59-16.38,2.99-4.05,5.7-8.03,8.18-11.98,3.23-6.76,6.44-13.46,9.67-20.22l13.66-38.76v-.04c.13-.39,2.47-8.56-2.08-12.16-.6-.47-.33-1.45.42-1.61l32.09-7.37.22-.02c.6,0,1.07.61.85,1.23l-28.99,79.14-.02.06c-.34.75-7.35,16.17.9,16.17.59,0,1.25-.08,2-.24,13.57-2.73,27.41-28.33,32.04-39.78s21.91-62.2,21.91-62.2c.1-.3.35-.53.67-.59l25.35-5.6h.2c.61-.01,1.08.62.83,1.24l-30.29,75.64s-11.72,30.63-21.83,52.51c-15.86,32.53-53.26,108.39-181.25,113.61-127.58,5.2-231.21,31.94-354.65,119.99-.17.12-.36.17-.54.17-.41,0-.8-.29-.89-.75-1.58-9.5-13.2-63.19-75.8-73.18-.85-.14-1.07-1.26-.31-1.7,7.86-4.49,39.64-20.18,133.9-43.91,112.67-28.37,253.63-33.69,314.17-33.69s125.89-33.85,154.76-102.44c.29-.7-.27-1.29-.86-1.29-.25,0-.52.11-.71.37-6.53,8.59-19.67,22.65-35.96,23.36h-.11c-9.43-.29-12.61-6.32-12.79-14.03-.01-.54-.45-.87-.91-.87-.26,0-.54.12-.74.37-11.23,14.71-22.28,23.23-33.09,25.6-2.38.52-4.58.78-6.61.78-10.57,0-16.36-6.92-16.27-19.27.13-16.56,10.94-46.34,30.35-80.2.37-.63-.1-1.37-.77-1.37l-.22.02-18.94,4.4c-.29.07-.53.28-.64.55-9.29,23.09-17.81,44.13-23.17,54.14-7.16,14.67-15.71,27.96-25.27,39.5-9.99,12.08-20.21,19.4-30.94,21.76-2.05.45-3.92.67-5.62.67-8.03,0-12.02-5.09-11.94-15.26.01-1.02.09-2.08.22-3.19.08-.63-.41-1.02-.91-1.02-.3,0-.6.14-.79.48-9.57,17.03-20.38,26.97-32.44,29.61-2.49.54-4.75.82-6.82.82-8.88,0-13.91-5.01-15-14.96-.06-.51-.48-.81-.91-.81-.26,0-.54.11-.73.36-1.59,2.08-3.21,4.13-4.84,6.11-9.99,12.08-20.49,19.2-31.21,21.55-1.99.45-3.82.65-5.48.65-9.04,0-13.2-6.18-13.13-14.99.04-4.82,2.23-13.04,6.61-24.97l18.52-51.62c1.37-3.77,2.2-7.15,2.22-10.1.02-3.23-.87-5.5-2.69-6.92-.63-.48-.45-1.47.34-1.64l31.93-7.07.2-.02c.61,0,1.08.61.86,1.23l-29.47,80.16c-1.37,3.77-2.2,6.89-2.22,9.56-.02,3.28,1.2,4.85,3.83,4.85.6,0,1.28-.08,2.03-.25,5.9-1.3,12.36-6.72,19.39-16.28,2.2-2.99,4.29-6.01,6.27-9.06l.12-.29c1.62-7.25,4.14-19.11,7.91-27.78,6.8-15.13,15.2-28.46,25.73-40.66,4.33-5.01,8.56-9.13,12.71-12.41l.99,4.48c.17.77.84,1.33,1.63,1.36h.07c.76,0,1.44-.5,1.66-1.23l1.34-4.42c.03-.09.05-.19.06-.28l.31-2.41.65-1.73v2.48c0,.08.01.15.01.23l.67,5.14c.1.76.69,1.37,1.45,1.49.09.01.18.02.27.02.66,0,1.28-.38,1.57-1l2.11-4.46c.11-.23.17-.49.17-.74v-3.66l1.95-3.5c.84-.26,1.68-.49,2.51-.67,2.41-.53,4.63-.83,6.63-.83,7.09.01,11.35,3.79,11.27,14.44-.01,1.85-.33,7.08-.62,8.01.22-.7,5.24-17.13,6.1-20.75.09-.34.35-.59.69-.68l.48,4.2.99,7c.11.79.76,1.4,1.55,1.46.05,0,.09.01.14.01.74,0,1.41-.48,1.63-1.2l2-6.43c.05-.16.08-.34.08-.51v-3.03l1.11-2.95h.02s-.45,1.74-.45,1.74c-.04.14-.05.28-.05.42v3.82c0,.07.01.15.01.22l.75,5.74c.1.75.68,1.35,1.43,1.47.09.01.18.02.27.02.65,0,1.26-.37,1.54-.98l2.35-4.98c.11-.23.16-.48.16-.73v-4.15l2.7-4.86,4.54-1,2.01.83c-.01.06-.02.11-.04.17l-29.53,80.37c-1.37,3.77-2.2,6.9-2.22,9.57-.02,3.26,1.2,4.84,3.83,4.84.6,0,1.28-.08,2.03-.25,5.63-1.24,11.83-6.33,18.32-15.51,6.42-9.01,12.05-18.91,17.15-29.23Zm32.48-47.52h0l6.21,6.24-6.21-6.24Zm-37.29-2.01l-3.3-2.94-3.58-1.2-5.79,1.01-3.95,7.1v4.62l-.9,1.9-.34-2.58v-3.58s1.71-6.66,1.71-6.66l-5.53,2.7-2.09,4.16v3.37l-.72,2.31-.41-2.88-.5-4.39,2.5-4.08,7.59-4.05,7.05-2.13,6.32-14.51c.56-.15,1.1-.36,1.62-.62l1.81,3.24-6.92,12.56,3.05,2.11,2.38,4.54Zm195.81-111.3l-89.05,9.45.03.25c7.53-.42,15.03-1.01,22.55-1.54,7.52-.5,15.02-1.18,22.52-1.81l22.51-1.91,21.64-2.12,12.94,9.88c-8.44,1.36-16.89,2.69-25.41,3.53-2.55.32-5.12.53-7.69.77-2.57.22-5.13.5-7.7.66l-7.71.54-7.72.48c-10.3.63-20.62,1.02-30.94,1.13-10.33.25-20.67.16-31.02-.03v.14c-17.16,13.54-48.01,35.6-81.75,48.8-.54-1.58-1.17-3.13-1.87-4.65l-.33.15c.61,2.78,1.18,5.5,1.44,8.18.27,2.68.27,5.31-.1,7.8-.19,1.24-.46,2.45-.88,3.59-.39,1.15-.86,2.24-1.45,3.26-.58,1.03-1.31,1.95-2.07,2.82-.05.06-.11.12-.17.18l-3.37-5.74-2.02,1.77s-.34.18-.53.25c-.22.09-.45.17-.66.23-.43.12-.82.16-1.11.14-.55-.06-.74-.14-1.22-.78-.1-.16-.22-.34-.33-.55-.16-.3-.41-.83-.64-1.19-.46-.8-.97-1.48-1.48-2.15-1.04-1.31-2.13-2.46-3.31-3.49-1.17-1.04-2.36-2.01-3.58-2.92-1.25-.89-2.51-1.73-3.78-2.53-2.6-1.54-5.23-3-8.08-4.08l-.2.3c2.41,1.67,4.76,3.45,7.03,5.31.86.71,1.71,1.44,2.55,2.18-4.71,1.03-9.42,1.83-14.11,2.32-2.78.29-5.56.46-8.34.54-18.74.42-37.54-3.98-54.31-12.26-9.59-4.82-18.7-10.79-26.3-18.4-3.78-3.81-7.19-8.01-9.85-12.67-2.66-4.64-4.56-9.78-5-15.12h0v-.04c-.13-.89-.13-1.87-.11-2.82.02-.95.08-1.91.16-2.87l-.51-.05c-.21.4-.41.81-.61,1.22-.05.1-.09.2-.14.3-.19.42-.37.85-.51,1.29-.01.02-.02.04-.02.06-.1.27-.19.55-.28.83-1.33-1.65-2.83-3.53-4.43-5.58-.08-.1-.16-.2-.24-.3-.32-.41-.64-.83-.97-1.25-.25-.33-.5-.65-.76-.99-2.59-3.39-5.36-7.19-8.1-11.24-1.61-2.37-3.2-4.82-4.74-7.34-2.97-4.87-5.72-9.97-7.93-15.08,1.79-.1,3.59-.29,5.36-.67,1.95-.44,4.03-1.07,5.53-2.48-1.85.79-3.79.97-5.73,1.17-1.95.15-3.9.26-5.87.32-3.15.12-6.3.18-9.49.39.37-.26.75-.51,1.13-.76.05-.03.11-.07.16-.1.53-.34,1.05-.69,1.58-1.02,1.55-.98,3.14-1.92,4.76-2.78,1.61-.88,3.28-1.66,4.98-2.33,1.72-.64,3.48-1.19,5.35-1.33-1.86-.28-3.8-.07-5.65.36-1.86.41-3.66,1.05-5.42,1.75-1.75.73-3.46,1.55-5.12,2.45-1.59.88-3.14,1.79-4.68,2.81l-1.82.55c.23-1.8.71-3.57,1.45-5.26.5-1.11,1.06-2.21,1.7-3.27.65-1.05,1.39-2.06,2.15-3.05,1.55-1.97,3.31-3.8,5.2-5.52s3.9-3.33,6.01-4.83h0c-2.37.96-4.59,2.26-6.71,3.71-.33-8.76,2.62-16.64,10.89-22.37,8.41-5.83,16.65-8.77,24.59-8.93,11.54-.24,22.44,5.38,32.32,16.5,3.28,3.69,2.63,4.26,15.43,13.92h.08c8.73-.18,56.91,12.85,102.68,25.86l.22.05h-.05s.09,0,.13.02l8.52,1.9c.69.14,1.39.24,2.09.31l15.88,1.39c-4.53,1.91-9.18,3.64-13.84,5.22-6.19,2.06-12.46,3.89-18.83,5.28-11.84,2.38-15.79,2.12-15.79,2.12.05-.09.13-.58.15-.88s.01-.78-.08-1.14c-.05-.37-.19-.69-.32-1.02-.12-.33-.27-.63-.45-.91-.67-1.15-1.55-2.08-2.49-2.92.48,1.17,1.06,2.27,1.34,3.42.34,1.11.36,2.24-.06,2.91-.42.66-1.33,1.1-2.38,1.35-1.05.26-2.21.37-3.38.43-4.73.2-9.63-.34-14.65-.38.13.06.26.1.39.16-.4-.03-.81-.04-1.21-.08.2.05.39.09.59.14-.19-.02-.38-.02-.57-.04.99.26,1.99.48,3,.69,1.63.58,3.3,1.03,5,1.38.69.14,1.38.25,2.08.36.21.51.41,1.03.53,1.55.34,1.11.36,2.24-.06,2.91-.42.66-1.33,1.1-2.38,1.35-1.05.26-2.21.37-3.38.43-4.73.2-9.63-.34-14.65-.38,2.3,1.05,4.72,1.76,7.19,2.25.37.07.73.13,1.1.2.21.52.41,1.03.53,1.55.34,1.11.36,2.24-.06,2.91-.42.66-1.33,1.1-2.38,1.35-1.05.26-2.21.37-3.38.43-4.73.2-9.63-.34-14.65-.38,2.3,1.05,4.72,1.76,7.19,2.25.27.05.54.09.81.14.31.7.6,1.4.77,2.11.34,1.11.36,2.24-.06,2.91-.42.66-1.33,1.1-2.38,1.35-1.05.26-2.21.37-3.38.43-4.73.2-9.63-.34-14.65-.38,2.3,1.05,4.72,1.76,7.19,2.25,2.47.49,4.99.79,7.59.68,1.3-.07,2.62-.23,3.94-.66.33-.11.66-.23.99-.4.33-.14.65-.33.97-.56.32-.19.61-.5.89-.78.25-.32.49-.68.64-1.07.13-.4.27-.79.26-1.19.05-.41.01-.78-.08-1.14-.05-.37-.19-.69-.32-1.02-.12-.33-.27-.63-.45-.91-.31-.53-.66-1.01-1.05-1.46,1.93.3,3.9.47,5.91.38,1.3-.07,2.62-.23,3.94-.66.09-.03.18-.08.27-.11,5.97.67,12.03.75,18.03.4,5.21-.32,10.39-.96,15.53-1.83,5.14-.9,10.23-2.03,15.27-3.33,10.07-2.68,19.94-6.05,29.56-10.01,4.82-1.95,9.56-4.09,14.25-6.34,2.52-1.21,3.97-1.9,6.44-3.2,3.6.19,28.47.7,28.47.7-17.33,8.05-35.06,15.33-53,21.88-19.76,7.18-39.88,13.41-60.36,17.86-10.25,2.16-20.58,3.95-30.98,4.9-10.39.92-20.87,1.18-31.2.02-1.28-.17-2.62-.22-3.84-.48l-1.88-.32c-.62-.11-1.23-.3-1.84-.44-2.46-.59-4.81-1.51-7.01-2.7-4.45-2.33-8.01-6.11-10.4-10.6-2.39-4.51-3.5-9.68-3.93-14.87-.37-5.21-.1-10.51.9-15.7-1.43,5.09-2.16,10.4-2.11,15.75.05,5.33.9,10.78,3.18,15.77,2.25,4.98,6.06,9.42,10.88,12.21,2.38,1.43,4.94,2.55,7.59,3.32,2.63.85,5.36,1.29,7.99,1.64,10.62,1.52,21.39,1.68,32.03.88,10.65-.78,21.22-2.34,31.64-4.53,20.86-4.32,41.17-10.74,61-18.25,9.89-3.82,19.71-7.84,29.35-12.23,4.28-1.95,8.54-3.94,12.77-5.98,1.1.33,2.17.64,3.18.94,0,0,66.64-18.08,91.41-18.59,2.54-.05,4.64.08,6.18.44,16.6,3.82,28.85,11.5,28.85,11.5l-21.49,3.14.05.02Z" style="fill: #121921;"/>
  <path d="m711.45,75.71l-6.18-3.88c-.52-.33-13.03-8.1-30.14-12.04-1.62-.37-3.6-.55-6.07-.55-.37,0-.74,0-1.13,0-17.93.37-56.34,9.48-77.56,14.86l4.63-2.51c.61-.33.91-1.03.74-1.7-.17-.66-.77-1.12-1.45-1.12h-.02l-5.73.06-22.52.24c-.39,0-.77,0-1.14,0-.6,0-1.19,0-1.78-.02l3.29-1.9c.59-.34.87-1.03.7-1.68s-.76-1.11-1.44-1.12l-4.66-.03-9.4-.07c-.45,0-7.47-.14-12.71-.24l.59-.32c.58-.32.89-.99.74-1.64-.14-.65-.7-1.13-1.36-1.17l-22.8-1.59c-2.16-.15-4.31-.52-6.39-1.1-22.63-6.29-96.55-26.64-108.55-27.73-9.08-6.89-10.43-8.54-12.13-10.62-.46-.56-.98-1.2-1.65-1.95-10.56-11.88-22.25-17.91-34.74-17.91h-.01c-.26,0-.52,0-.78,0-8.84.18-17.89,3.44-26.89,9.67-7.06,4.89-11.23,11.51-12.39,19.68-.33,2.31-.41,4.81-.23,7.45-1.13.97-2.14,1.95-3.08,2.96-2.05,2.26-3.65,4.64-4.76,7.06-1.3,2.88-1.97,5.77-2,8.59l-.02,1.76c0,.48.22.94.61,1.22.26.19.57.29.89.29.15,0,.31-.02.46-.07l1.65-.53,3.72-1.2.2-.06c.15-.05.3-.12.43-.22l.15-.11c.12-.09.24-.17.36-.25,1.2.21,2.46.38,3.85.5.86.08,1.78.13,2.85.16,7.67,17.9,21.73,35.33,28.77,44.02.2,1.74.55,3.51,1.02,5.27.15.77.33,1.53.52,2.26.72,2.85,1.79,5.69,3.19,8.44,1.23,2.48,2.72,4.97,4.55,7.58,1.51,2.14,3.28,4.29,5.57,6.78,2.05,2.2,4.14,4.23,6.23,6.05,2.16,1.83,4.45,3.6,6.82,5.29,2.29,1.62,4.7,3.2,7.17,4.68,2.39,1.37,4.93,2.71,7.58,3.98,2.51,1.2,5.13,2.34,7.8,3.4,2.39.91,4.95,1.77,8.08,2.71,2.43.71,5.29,1.51,8.23,2.12,2.77.56,5.57,1.02,8.35,1.39,1.45.18,3.03.34,4.82.47.06.04.11.09.17.13,1.67,1.39,3.83,3.28,5.63,5.46.63.78,1.42,1.82,1.89,2.95.32.91.75,1.77,1.26,2.54l-4.14,10.72-4.52,1.36c-.39.12-.74.3-1.06.55l-7.46,5.84c-.37.29-.68.67-.89,1.09l-1.72,3.42c-.15.29-.25.6-.3.92-5.12,3.71-10.22,8.53-15.55,14.71-10.71,12.4-19.34,26.03-26.38,41.67-3.68,8.48-6.21,19.74-8.05,28-1.96,2.98-3.9,5.79-5.8,8.36-1.02,1.38-2.01,2.65-2.98,3.82l25.43-69.19c.58-1.56.35-3.3-.6-4.65-.16-.23-.34-.45-.54-.65l-3.39-3.4c8.17-3.78,13.94-12.42,14.01-21.38.04-5.05-1.65-9.54-4.74-12.65l-6.73-6.76c-.78-1.01-1.7-1.91-2.72-2.68-2.78-2.45-6.36-3.74-10.34-3.74-1.37,0-2.77.16-4.16.47-10.4,2.29-18.61,12.48-18.69,23.21-.04,4.8,1.63,9.1,4.71,12.18h-.01s7.07,7.11,7.07,7.11l-20.41,4.52c-1.93.42-3.42,1.89-3.88,3.82-.39,1.72.13,3.54,1.36,4.78h0l.98.98c.29.49.61,1.4.6,3.05,0,.58-.05,1.2-.14,1.86-.1-.17-.22-.34-.34-.5-.13-.16-.27-.33-.42-.48l-7.27-7.3c-.05-.09-.13-.22-.23-.34-.32-.41-.71-.77-1.2-1.09l-.05-.05h-.01s-.02,0-.03,0c-.96-.95-2.21-1.48-3.54-1.48-.31,0-.64.03-1.05.11-.02,0-.04.01-.06.01l-25.37,5.65c-2.59.58-4.3,3-3.98,5.63l.05.44c.17,1.41.32,2.63.31,3.41-.06,8.44-3.2,20.81-8.82,34.84-5.87,14.34-12.86,27.51-20.75,39.12-.5.72-1,1.42-1.49,2.1l23.57-64.1c.56-1.57.34-3.31-.59-4.66-.17-.25-.36-.47-.57-.68-6.47-6.62-8.13-8.22-8.63-8.66h0c-.17-.16-1.76-1.59-3.69-1.61-.48,0-.95.07-1.45.21-4.95,1.47-19.05,4.25-27.47,5.91l-.85.17-1.87.36,21.95-59.36c.57-1.54.36-3.28-.57-4.65-.18-.26-.37-.48-.57-.68l-7.28-7.31s-.05-.09-.08-.14c-.34-.49-.78-.91-1.32-1.27l-.06-.06c-.08-.08-.16-.15-.25-.2-.93-.83-2.13-1.3-3.36-1.3-.58,0-1.13.1-1.65.28l-35.7,11.86c-1.07.36-1.97,1.04-2.6,1.95-5.75,8.33-16.94,22.83-32.34,41.94-1.44,1.81-2.97,3.72-4.67,5.82l-.68-.68c-.12-.19-.25-.37-.4-.54.28-1.4.43-2.8.44-4.17.03-3.75-1.02-6.8-3.04-8.82l-6.98-7.01c-.59-.82-1.31-1.53-2.13-2.11-1.82-1.63-4.21-2.46-7.12-2.46-1.31,0-2.79.18-4.37.53-8.59,1.89-16.37,7.84-23.11,17.7-.24.36-.49.74-.75,1.14l-5.02-5.04c-.63-.85-1.39-1.6-2.25-2.22-.78-.69-1.64-1.25-2.59-1.68l7.79-20.59c.42-1.1.44-2.3.08-3.4,13.76-.72,24.19-1.84,31.01-3.34,35.36-8.02,38.37-27.53,38.45-33.32.03-1.31-.47-2.55-1.39-3.49l-7.29-7.32c-.19-.31-.4-.57-.62-.8-.23-.23-.5-.44-.81-.64l-.04-.04c-.89-.9-2.15-1.43-3.45-1.43-1.46,0-2.84.65-3.78,1.79-3.07,3.69-11.69,8.82-26.65,12.11-7.3,1.6-20.96,3.6-38.46,5.62-16.7,1.93-28.75,3.7-35.8,5.25-21.51,4.72-40.64,15.64-52.48,29.96-6.36,7.68-9.61,15.61-9.67,23.56-.04,5.71,1.61,10.43,4.79,13.73.05.06.1.12.15.18l8.75,8.78c3,3.01,7.18,4.6,12.09,4.6,1.7,0,3.49-.19,5.34-.57-6.05,9.59-11.6,15.13-17.33,17.33-1.88.73-3.19,2.42-3.42,4.42-.18,1.6.37,3.16,1.49,4.29h0l8.54,8.57c1.86,2.52,3.07,4.82,3.62,6.83.21.79.62,1.53,1.19,2.14.04.06.09.11.14.17l.1.11c-4.83,2.48-9.08,5.31-12.67,8.42-8.48,7.34-13.19,16.25-13.26,25.1-.05,6.42,1.93,11.68,5.89,15.65h0s8.75,8.79,8.75,8.79c2.84,2.85,6.74,5.04,11.57,6.5.49.14.98.21,1.47.21,2.68,0,4.92-2.12,5.11-4.82.81-12.4,16.77-23.19,42.69-28.88,2.13-.47,4.29-.9,6.48-1.28-34.2,34.01-62.09,55.26-76.84,58.49-1.79.39-3.4.59-4.79.59-.92,0-1.78-.09-3.3-.35-.08-.01-.17-.02-.25-.02-1.72,0-3.31.87-4.27,2.33-.95,1.48-1.08,3.31-.37,4.91,2.1,4.62,3.94,11.02,5.33,18.5,1.75,8.03,2.6,14.99,2.47,20.16-.03,1.41.49,2.71,1.45,3.68.02.02.03.03.05.05h0l5.38,5.41c-.57.3-1.1.6-1.59.88-1.91,1.1-2.89,3.19-2.49,5.33.17,1.01.65,1.94,1.39,2.68h0l8.75,8.78c.76.77,1.73,1.26,2.8,1.43,17.42,2.78,32.26,9.33,44.12,19.49,14.53,17.02,18.59,36.06,19.49,41.49.16.97.6,1.86,1.26,2.58.04.05.09.11.14.16l8.75,8.78c.95.96,2.23,1.48,3.59,1.48,1.08,0,2.11-.33,2.98-.96,129.41-92.28,234.46-114.39,352.39-119.2,55.95-2.28,101.45-18.29,135.25-47.58,28.17-24.4,41.59-51.93,49.61-68.38,9.24-20.02,19.88-47.4,21.92-52.69l.06-.15,30.26-75.6c.63-1.58.44-3.35-.5-4.74-.17-.25-.36-.49-.57-.7l-7.26-7.29s-.05-.09-.08-.13c-.36-.54-.85-1.01-1.43-1.39-.03-.03-.06-.06-.09-.08-.96-.89-2.27-1.35-3.92-1.35-.14,0-.28,0-.42.01-.09,0-.17.02-.26.03l-25.35,5.6c-1.71.37-3.14,1.64-3.73,3.31-.16.48-17.32,50.84-21.84,62.02-2.33,5.76-7.59,16.3-14.43,24.75l25.04-68.37c.57-1.55.36-3.28-.58-4.64-.17-.24-.35-.45-.54-.64l-7.31-7.33s-.06-.1-.09-.15c-.34-.49-.79-.93-1.34-1.29h-.01c-.97-.98-2.28-1.45-4.01-1.45-.16,0-.32,0-.48.01-.09,0-.18.02-.26.04l-32.09,7.36c-1.92.44-3.44,1.97-3.88,3.89-.39,1.71.11,3.47,1.33,4.69h0l.89.89c1.19,1.71.8,5.25.26,7.14l-13.56,38.44-4.74,9.91-4.74,9.89c-2.48,3.93-5.12,7.8-7.87,11.52-2.96,4.13-5.69,7.34-8.27,9.71,1.98-8.29,5.92-18.73,11.55-30.51l.02-.05c8.11-17.25,15.78-33.54,22.66-44.53.98-1.58,1.04-3.55.16-5.16-.22-.4-.49-.76-.79-1.07l-7.29-7.32c-.41-.64-.95-1.19-1.59-1.59-.97-.9-2.3-1.35-3.97-1.35-.13,0-.26,0-.39.01-.09,0-.18.02-.26.03l-32.19,7.15-4.58-4.6c-.03-.06-.07-.13-.13-.21-.34-.48-.79-.9-1.33-1.26h-.01c-.97-.98-2.29-1.45-4.04-1.45-.15,0-.29,0-.44.01-.09,0-.18.02-.27.04l-7.41,1.67-15.93,3.61c-2.3.51-3.94,2.53-3.98,4.9-.3,17.78-6.8,44.75-15.44,64.13-5.5,11.11-10.98,20.47-16.74,28.62-.51.73-1.02,1.42-1.53,2.08l25.18-68.5c.17-.48.27-.99.28-1.55.04-.2.04-.42-.01-.62-.07-.92-.37-1.77-.87-2.49-.16-.23-.34-.45-.54-.65l-.22-.22-4.46-8.96c-.15-.39-.37-.75-.65-1.05l-1.01-1.4,4.27-7.79.2-.14c2.43-1.7,4.43-4.07,5.94-7.03,1.34-2.66,2.12-5.69,2.28-8.78.16-2.52-.09-5.22-.76-8.22,32.02-12.7,61.32-33,80.5-48.02,4.45.29,17.76,1.05,35.61,1.05,4.24,0,8.52-.04,12.71-.13,27.53-.57,52.72-2.89,74.86-6.92l6.17-1.12c.59-.11,1.06-.56,1.19-1.14.13-.59-.09-1.19-.58-1.55l-5.07-3.69-10.4-7.57,11.32-1.65,7.22-1.06c.62-.09,1.12-.56,1.25-1.18.08-.5-.19-1.13-.72-1.47Zm-8.02,2.33l-14.97,2.19,13.38,9.74,5.07,3.69h0l-6.17,1.12c-1.38.25-2.77.49-4.17.73-7.01,1.19-14.32,2.21-21.89,3.06-4.55.51-9.19.96-13.93,1.36-1.68.14-3.37.27-5.08.39-3.1.22-6.23.43-9.41.6-1.64.09-3.29.17-4.95.25-4.98.23-10.04.4-15.19.5-.99.02-1.96.04-2.93.05-.27,0-.55,0-.82,0-.78,0-1.56.02-2.33.03-.19,0-.38,0-.57,0-.93,0-1.86.02-2.77.02h-.66c-.72,0-1.44,0-2.15,0h-3.52c-.45,0-.89,0-1.33,0h-.56c-.62,0-1.24,0-1.85-.02h-.18c-.54,0-1.07,0-1.6-.02-.2,0-.4,0-.61,0-.39,0-.78,0-1.17-.02-.21,0-.42,0-.63,0-.38,0-.75,0-1.13-.02-.2,0-.41,0-.61,0-.43,0-.85-.02-1.26-.03-.12,0-.25,0-.38,0-.54,0-1.07-.03-1.6-.04-.14,0-.28,0-.42,0-.38,0-.76-.02-1.13-.03-.19,0-.38,0-.57-.02-.32,0-.64-.02-.96-.03-.19,0-.38,0-.57-.02-.31,0-.61-.02-.91-.03-.18,0-.36,0-.54-.02-.35,0-.69-.02-1.03-.04-.2,0-.41,0-.61-.02-.34,0-.68-.03-1.01-.04-.17,0-.34,0-.51-.02-.25,0-.51-.02-.75-.03-.19,0-.38-.02-.58-.02-.21,0-.42-.02-.63-.03-.19,0-.37-.02-.55-.02-.23,0-.46-.02-.68-.03-.14,0-.29,0-.43-.02-.36-.02-.71-.03-1.05-.05-.08,0-.15,0-.23,0-.27,0-.53-.03-.79-.04-.14,0-.27,0-.4-.02-.18,0-.35-.02-.52-.03-.15,0-.3-.02-.45-.02-.16,0-.32-.02-.47-.03-.12,0-.24,0-.36-.02-.18,0-.35-.02-.52-.03-.17,0-.34-.02-.5-.03s-.32-.02-.47-.03c-.14,0-.27-.02-.4-.02-.09,0-.17,0-.25-.02-.12,0-.23,0-.35-.02-.09,0-.18,0-.27-.02-.1,0-.2,0-.3-.02-.08,0-.16,0-.24-.02-.08,0-.16,0-.24-.02-.07,0-.13,0-.19,0-.08,0-.16,0-.23-.02,0,0-.01,0-.01,0-.71.56-1.44,1.13-2.19,1.7-.22.17-.44.34-.66.51-.59.45-1.19.91-1.8,1.38-.21.16-.41.31-.62.47-.77.58-1.55,1.18-2.35,1.77-.25.19-.5.38-.76.56-.59.44-1.18.88-1.78,1.32-.32.24-.64.47-.96.71-.68.5-1.36.99-2.06,1.5-.4.29-.8.58-1.21.87-.62.44-1.24.89-1.87,1.34-.42.3-.85.6-1.28.9-.51.36-1.02.71-1.53,1.07-.44.31-.88.62-1.33.93-.82.57-1.65,1.14-2.49,1.71-.51.35-1.04.7-1.56,1.05-.44.3-.89.6-1.33.89-.56.38-1.13.75-1.7,1.13-.4.26-.8.52-1.2.78-1.08.71-2.18,1.42-3.29,2.13-.35.22-.69.44-1.04.67-.66.42-1.33.84-2.01,1.26-.33.2-.66.41-.99.61-2.28,1.41-4.6,2.82-6.96,4.22-.29.17-.58.34-.87.51-.78.45-1.56.91-2.34,1.36-.1.06-.2.11-.3.17-1.64.94-3.3,1.87-4.97,2.79-.19.1-.37.21-.56.31-.83.45-1.66.9-2.5,1.35-.23.12-.45.24-.68.36-2.61,1.39-5.25,2.74-7.93,4.06-.26.13-.53.26-.79.39-.87.42-1.74.85-2.62,1.26-.01,0-.02.01-.03.01-1.82.86-3.64,1.7-5.49,2.51-.24.11-.49.22-.73.33-.85.38-1.71.75-2.57,1.11-.3.13-.59.25-.89.38-1.85.78-3.7,1.53-5.56,2.26.06.23.13.45.19.68.65,2.73,1.04,5.56.86,8.38-.04.71-.11,1.41-.21,2.11-.32,2.1-.95,4.16-1.91,6.06-.22.44-.47.87-.72,1.29-1.21,2.01-2.77,3.81-4.74,5.19l-.3.21-.06-.11-5.03,9.17,1.63,2.25c.19.19.34.42.42.68l4.61,9.26.39.39c.14.14.26.29.37.45h0c.14.2.24.41.33.63.04.09.07.17.1.26.03.11.06.21.08.32.06.23.09.47.1.71l.03.05s-.02.01-.02.02c0,.21,0,.41-.03.61-.03.23-.08.46-.16.68l-27.95,76.03c.58-.55,1.15-1.14,1.73-1.75.68-.73,1.35-1.51,2.02-2.32,1.06-1.28,2.11-2.65,3.17-4.15,3.64-5.14,7.16-10.75,10.64-16.97.7-1.24,1.39-2.51,2.08-3.8,1.39-2.59,2.77-5.27,4.16-8.07,4.37-9.79,8.19-21.48,10.95-32.98,1.73-7.18,3.05-14.29,3.83-20.8.47-3.91.75-7.6.8-10.97,0-.21.02-.41.06-.61.26-1.39,1.32-2.53,2.75-2.85l7.96-1.81,7.96-1.81,3.7-.84,3.7-.84c.13-.01.26-.01.38-.01h.06c.31,0,.6.02.87.06.04.01.09.01.13.02.26.04.5.1.72.18.03.01.06.02.09.04.22.08.42.18.6.29.02.01.03.02.05.04.18.12.35.26.5.41-.01-.01-.02-.02-.03-.04h0l.12.12c.2.12.4.26.57.42.18.16.34.33.48.53.05.07.08.16.13.23l2.67,2.68,2.66,2.67,33-7.33h0c.11,0,.22-.01.33-.01.16,0,.29.02.44.03s.3.01.43.03c.19.03.37.07.54.12.11.03.24.05.34.09.18.06.33.14.49.22.08.04.16.07.23.11.21.13.4.28.57.45h0s-.01-.01-.02-.02h0l.02.02c.42.24.76.59,1.06.98.08.11.18.2.25.32l7.42,7.45c.21.21.39.46.54.73.15.28.27.58.34.89.07.31.1.62.1.94-.01.32-.06.63-.15.94-.05.15-.1.3-.17.45-.07.15-.14.29-.23.43-6.07,9.69-12.71,23.42-19.73,38.29-1,2.12-2.01,4.27-3.03,6.44-.84,1.76-1.64,3.48-2.4,5.17-1.52,3.38-2.89,6.62-4.1,9.7-1.81,4.62-3.26,8.9-4.34,12.8-.36,1.3-.68,2.55-.96,3.77s-.51,2.38-.71,3.5c.42-.28.84-.59,1.27-.93.86-.67,1.76-1.45,2.69-2.35.47-.45.94-.93,1.43-1.44.46-.49.93-1,1.41-1.55.79-.9,1.6-1.88,2.45-2.95.82-1.04,1.66-2.16,2.53-3.38,2.14-2.89,4.18-5.83,6.1-8.76.64-.98,1.27-1.95,1.88-2.92l4.77-9.97,4.77-9.98,13.6-38.56c.09-.33.2-.75.29-1.23.15-.81.28-1.8.29-2.82,0-.2,0-.41-.01-.61s-.02-.41-.04-.61c-.11-1.22-.42-2.41-1.09-3.3h0l-.97-.97h0c.06.06.13.12.2.18-.04-.03-.07-.07-.11-.1-.06-.05-.12-.11-.17-.16-.06-.06-.11-.14-.17-.2-.05-.06-.1-.12-.14-.18-.05-.07-.09-.15-.14-.22-.04-.07-.08-.13-.12-.2-.04-.08-.07-.16-.11-.25-.03-.07-.06-.13-.08-.2-.03-.09-.05-.18-.07-.27-.02-.07-.04-.13-.05-.2-.02-.1-.03-.2-.04-.29-.01-.06-.02-.13-.02-.19-.01-.11,0-.23.01-.35v-.15c.01-.17.04-.34.08-.5.27-1.19,1.13-2.17,2.26-2.61.16-.06.33-.11.5-.15l32.09-7.36h.01c.14-.01.28-.01.41-.01h.06c.31,0,.6.02.86.06.04.01.09.01.13.02.26.04.49.1.71.18.03.01.07.03.1.04.21.08.41.18.59.29.02.01.04.03.05.04.18.12.35.26.49.41-.01-.01-.02-.03-.04-.04l.12.12c.41.25.78.57,1.06.98.04.06.06.13.1.19l7.47,7.5c.13.13.25.28.36.43.49.71.7,1.58.61,2.44-.03.28-.1.57-.2.84l-27.65,75.48c1.97-1.86,3.85-3.99,5.64-6.25,1.51-1.9,2.94-3.9,4.29-5.93,2.62-3.96,4.91-8.02,6.74-11.67.32-.65.63-1.28.93-1.89.88-1.85,1.64-3.56,2.24-5.04.43-1.06.96-2.45,1.59-4.12.42-1.11.87-2.35,1.36-3.68.24-.67.49-1.36.75-2.07.26-.71.52-1.45.79-2.2.14-.38.27-.76.41-1.14.41-1.16.84-2.35,1.28-3.58.73-2.05,1.48-4.18,2.24-6.35.92-2.61,1.85-5.28,2.78-7.95.15-.44.31-.89.46-1.33,5.24-15.06,10.12-29.39,10.21-29.66.24-.67.67-1.25,1.22-1.68.13-.1.26-.19.39-.27.19-.11.38-.21.58-.28.14-.05.29-.1.45-.13l25.35-5.6h0c.12-.01.24-.01.36-.01h.06c.31,0,.6.02.87.06.04.01.09.01.13.02.26.05.5.11.72.18.03.01.06.02.09.04.22.09.42.18.6.3.02.01.03.02.05.04.19.13.35.26.5.42-.02-.02-.03-.04-.04-.05h0l.05.05.05.05c.44.27.84.61,1.13,1.05.04.05.05.12.09.17l7.43,7.46c.15.15.28.31.4.49.17.24.3.51.4.78s.16.55.19.84.02.58-.02.87-.12.57-.23.85l-30.26,75.61c-.03.09-.99,2.58-2.57,6.59-2.1,5.35-5.32,13.42-8.93,22.14-.6,1.45-1.22,2.92-1.84,4.4-2.8,6.65-5.76,13.48-8.58,19.6-6.97,14.3-18.05,37.04-39.43,58.71h-.01c-3.05,3.1-6.31,6.17-9.8,9.2-4.91,4.26-10.09,8.23-15.5,11.92-.76.52-1.52,1.03-2.29,1.54-1.49.98-3,1.94-4.52,2.88-30.38,18.71-67.93,29.08-112.02,30.88-73.88,3.01-142.71,12.8-215.62,42.3-1.82.74-3.65,1.49-5.48,2.25-2.38.99-4.77,2.02-7.16,3.05-2.54,1.1-5.1,2.23-7.65,3.38-5.15,2.32-10.33,4.75-15.54,7.29-1.89.92-3.78,1.85-5.67,2.8-9.46,4.73-19.02,9.81-28.69,15.28-1.64.93-3.28,1.86-4.92,2.81-6.12,3.53-12.29,7.21-18.5,11.05-1.47.91-2.94,1.82-4.41,2.75-12.95,8.13-26.12,16.95-39.56,26.53-.62.45-1.34.67-2.1.67-.43,0-.84-.09-1.23-.23-.27-.1-.53-.22-.76-.38-.19-.13-.37-.27-.53-.44l-4.38-4.4-4.37-4.38h0s.07.06.1.09c-.17-.16-.31-.33-.45-.52-.26-.36-.45-.76-.57-1.21-.02-.09-.06-.18-.07-.28-.02-.12-.04-.25-.07-.38-.02-.13-.05-.26-.07-.4-.09-.51-.2-1.08-.33-1.72-.04-.21-.09-.43-.14-.65-.08-.37-.16-.75-.26-1.15-.26-1.11-.57-2.35-.95-3.7-.19-.68-.4-1.39-.62-2.13-.38-1.24-.81-2.55-1.3-3.92-.21-.58-.43-1.18-.66-1.78-1.28-3.4-2.91-7.1-4.96-10.94-.31-.58-.63-1.17-.97-1.76-2.56-4.54-5.7-9.22-9.59-13.77-10-8.58-23.38-15.79-41.3-19.26-1.19-.23-2.41-.45-3.64-.64-.33-.05-.63-.16-.92-.29-.3-.14-.57-.31-.82-.53-.08-.06-.16-.12-.23-.19l-8.75-8.78h0c-.13-.12-.25-.25-.35-.4-.32-.43-.55-.94-.64-1.5-.03-.19-.05-.38-.06-.57-.02-.75.19-1.46.6-2.06.3-.45.72-.84,1.22-1.13.2-.12.43-.24.67-.37s.5-.27.78-.42c.56-.3,1.19-.63,1.9-1l-6.82-6.85h0c.06.06.13.11.2.16.03.02.06.05.09.07-.11-.09-.23-.18-.33-.28-.66-.66-1-1.54-1.01-2.49,0-.03,0-.07,0-.1h0c.02-.67.02-1.36,0-2.08-.09-4.32-.73-9.57-1.88-15.42-.19-.97-.4-1.97-.62-2.97-.35-1.91-.73-3.75-1.14-5.51-.2-.88-.41-1.74-.63-2.57-.49-1.89-1.01-3.65-1.56-5.3-.67-2.01-1.37-3.85-2.1-5.47-.13-.28-.22-.58-.27-.87-.1-.54-.05-1.1.1-1.63.1-.34.23-.67.42-.97.67-1.02,1.79-1.65,3.01-1.65.2.03.39.07.57.1,1.27.2,2.1.28,2.98.28.38,0,.77-.01,1.18-.04,1.15-.08,2.39-.26,3.71-.54.08-.02.15-.03.23-.04,12.15-2.67,32.92-17.23,58.41-40.57,1.02-.93,2.05-1.88,3.08-2.84,2.07-1.92,4.17-3.9,6.29-5.93,4.25-4.06,8.61-8.34,13.07-12.82-3.76.55-7.48,1.23-11.14,2.03-17.86,3.92-31.11,10.31-38.16,18.04-.5.55-.98,1.1-1.42,1.66-.29.37-.56.74-.82,1.11-2.07,2.99-3.26,6.15-3.47,9.43-.02.24-.06.47-.12.7-.18.68-.54,1.27-1.03,1.73-.65.61-1.52.99-2.47.99-.35,0-.7-.05-1.03-.14-.58-.17-1.14-.36-1.69-.55-2.19-.78-4.14-1.72-5.84-2.82-.85-.55-1.64-1.14-2.37-1.77-.36-.32-.71-.64-1.05-.98l-4.38-4.4-4.37-4.38h0c.21.21.44.42.67.62-1.54-1.4-2.79-3-3.75-4.78-1.28-2.37-2.04-5.07-2.28-8.1-.06-.76-.09-1.53-.08-2.33,0-.53.03-1.05.06-1.58.04-.6.12-1.21.21-1.81.14-.97.34-1.95.6-2.92,1.68-6.27,5.75-12.38,11.87-17.68,3.99-3.46,8.78-6.52,14.22-9.14l-1.58-1.58h0s.04.04.07.06c.02.01.04.03.06.05-.25-.23-.47-.5-.65-.79s-.32-.61-.41-.95c-.6-2.23-1.92-4.72-3.92-7.42l-8.62-8.65s0,.01.02.02c-.04-.04-.08-.08-.12-.13-.05-.05-.1-.11-.14-.17-.06-.07-.11-.15-.17-.22-.04-.06-.08-.12-.12-.18-.05-.08-.09-.16-.14-.24-.03-.06-.07-.13-.09-.19-.04-.09-.07-.18-.1-.27-.02-.06-.05-.13-.07-.19-.03-.1-.05-.19-.07-.29,0-.06-.03-.13-.04-.19-.02-.11-.02-.22-.03-.33,0-.06,0-.11,0-.17,0-.16,0-.33.02-.5h0c.1-.91.51-1.73,1.13-2.34.02-.02.04-.03.06-.05.19-.18.4-.34.63-.48.2-.13.42-.24.65-.33,4.59-1.77,8.77-5.36,12.82-10.45.4-.51.81-1.03,1.21-1.57,1.61-2.15,3.2-4.53,4.79-7.13.4-.65.79-1.31,1.19-1.98-.48.15-.96.3-1.46.44s-1,.26-1.52.38c-.49.11-.97.2-1.45.28s-.95.15-1.41.2c-.93.11-1.84.16-2.72.16-2.11,0-4.04-.33-5.77-.92-2.04-.7-3.81-1.79-5.26-3.23l-4.37-4.39-4.37-4.39h0c.12.12.24.22.36.33-1.18-1.1-2.17-2.43-2.94-3.95-.26-.51-.49-1.04-.7-1.59-.83-2.21-1.26-4.76-1.24-7.62.03-3.46.7-6.92,1.99-10.36.25-.67.53-1.34.83-2.01.17-.37.34-.75.53-1.12.72-1.47,1.55-2.93,2.5-4.39,1.03-1.59,2.19-3.17,3.48-4.74,2.91-3.52,6.27-6.82,10-9.88,10.26-8.41,23.35-14.91,37.71-18.62,1.3-.34,2.62-.65,3.95-.94,1.75-.39,3.82-.78,6.19-1.2,3.56-.62,7.8-1.26,12.72-1.94,4.92-.67,10.51-1.37,16.75-2.09,6.6-.76,12.65-1.52,18.02-2.26,1.79-.25,3.51-.49,5.14-.73,4.09-.6,7.67-1.18,10.68-1.72,1.2-.22,2.31-.43,3.32-.64.51-.1.99-.2,1.44-.31,7.66-1.69,13.72-3.87,18.27-6.12,1.14-.56,2.18-1.13,3.13-1.69.48-.28.93-.56,1.36-.84,2.14-1.4,3.71-2.76,4.72-3.97.64-.78,1.57-1.21,2.55-1.23.03,0,.05-.01.07-.01h0c.9,0,1.78.36,2.4,1h0s.06.08.1.12h0s-.04-.04-.05-.07c-.01-.02-.03-.04-.04-.05h0l-.02-.02.17.17c.12.07.24.15.36.23.11.08.22.18.33.28.13.13.23.27.33.41.06.09.12.17.17.26l7.39,7.42.03.03c.48.48.79,1.08.9,1.74.04.22.06.44.05.67-.08,5.52-2.99,24.1-37.28,31.88-3.59.79-8.19,1.47-13.77,2.05-3.48.36-7.35.67-11.59.95-1.7.11-3.45.21-5.27.31-.91.05-1.83.09-2.77.14l.44.44c.15.15.29.31.41.49.16.24.3.5.4.77.3.8.3,1.7-.01,2.53l-8.32,22c.9.26,1.72.65,2.46,1.14.39.26.77.53,1.12.84.4.28.77.59,1.11.92.34.34.65.7.94,1.09l6.43,6.45c.45-.73.92-1.47,1.41-2.22.1-.16.2-.31.3-.47,1.63-2.38,3.32-4.53,5.06-6.43,2.18-2.38,4.45-4.39,6.8-6.02,1.25-.87,2.53-1.62,3.82-2.27,1.63-.82,3.29-1.48,4.98-1.96.51-.14,1.02-.27,1.53-.38,1.47-.33,2.83-.49,4.05-.49,1.29,0,2.46.19,3.5.55,1.03.36,1.93.89,2.69,1.59.58.39,1.07.88,1.51,1.42.13.16.28.3.4.47l3.53,3.54,3.54,3.56c1.72,1.72,2.63,4.36,2.6,7.75h0c-.01.78-.06,1.57-.16,2.34-.05.39-.11.78-.18,1.17s-.15.77-.24,1.16c.18.14.34.29.48.46.14.16.27.34.38.52l1.98,1.98c1.93-2.38,3.84-4.75,5.72-7.12,3.86-4.79,7.46-9.3,10.77-13.49,5.8-7.33,10.72-13.7,14.68-18.97,2.82-3.77,5.15-6.97,6.95-9.57.45-.65,1.09-1.13,1.84-1.39l35.74-11.87c.18-.07.37-.11.56-.15s.38-.05.58-.05c.66,0,1.28.2,1.82.54.28.17.55.37.78.61.02.01.04.03.05.04l.06.04s.09.07.14.1c.34.23.66.51.9.85.04.06.06.12.09.18l7.44,7.47c.14.14.27.3.39.47.49.72.7,1.59.61,2.45-.03.28-.1.57-.2.84l-16.88,45.65-6.24,16.88c.49-.49,1.12-.83,1.83-.98l1.45-.28,1.45-.28c2.54-.5,5.77-1.13,9.16-1.82,1.02-.2,2.05-.41,3.08-.62.69-.14,1.38-.28,2.06-.42s1.37-.28,2.04-.42,1.34-.28,1.99-.42c.33-.07.65-.14.97-.21,1.28-.28,2.51-.55,3.65-.81.57-.13,1.11-.26,1.63-.38.73-.17,1.4-.34,2.01-.5.7-.18,1.32-.35,1.84-.5.17-.05.34-.09.51-.11.17-.03.34-.04.52-.04h0c1.4.02,2.68,1.21,2.68,1.21.09.06.56.51,1.22,1.16l.02.02.03.04c2.4,2.37,7.32,7.42,7.32,7.42.14.15.28.3.4.47.17.24.3.5.4.77.2.54.27,1.11.21,1.68-.03.28-.1.57-.19.84l-7.2,19.59-19.59,53.28c.42-.48.86-.99,1.3-1.51,1.84-2.2,3.86-4.82,6.07-8,7.98-11.73,15-24.99,20.91-39.41,1.07-2.66,2.04-5.26,2.93-7.79.59-1.69,1.14-3.34,1.65-4.96s.97-3.2,1.39-4.74c.21-.77.41-1.53.6-2.28.38-1.5.71-2.95,1-4.36.14-.7.28-1.4.4-2.07.24-1.36.44-2.67.59-3.92.23-1.88.35-3.64.36-5.26.01-.72-.1-1.69-.23-2.84-.05-.38-.1-.79-.15-1.21v-.02c-.07-.63.03-1.24.25-1.79.07-.17.15-.33.25-.49.27-.45.63-.85,1.07-1.15.37-.25.79-.43,1.24-.53l25.37-5.65c.27-.05.53-.08.78-.08.89,0,1.69.35,2.33.92.09.08.18.14.26.23.02.01.03.02.05.03-.04-.05-.08-.1-.12-.14l.17.17c.36.22.7.49.96.84.08.11.14.23.21.34l7.41,7.44c.11.11.21.22.3.34.06.08.11.18.16.26.39.6.61,1.28.6,1.99,0,.27-.04.54-.11.82-2.11,8.41-4.79,16.29-8.02,24.2-.81,1.98-1.65,3.95-2.52,5.94-2.62,5.96-5.53,12-8.73,18.36-5.06,10.07-10.39,19.39-16.07,28.07-1,1.53-2.01,3.03-3.03,4.52-2.29,3.34-4.64,6.59-7.05,9.75-.93,1.22-1.87,2.43-2.81,3.62-1.72,2.16-3.47,4.29-5.25,6.38-2.56,2.99-5.08,5.75-7.57,8.26-3.32,3.35-6.57,6.27-9.77,8.78-1.13.88-2.25,1.69-3.37,2.47-6.02,4.2-11.87,6.92-17.63,8.18-2.36.52-4.59.78-6.59.78-4.26,0-7.77-1.17-10.43-3.48-.08-.08-.16-.16-.24-.23l-5.82-5.85-2.92-2.93h0c.08.08.16.16.24.23-2.28-2.21-3.82-4.84-4.65-7.91-.33-1.22-.55-2.52-.65-3.88-.05-.68-.07-1.38-.07-2.09h0c.04-5.35,2.2-13.65,6.77-26.12l18.58-51.47c.51-1.41.93-2.72,1.25-3.93.53-2.02.8-3.76.81-5.28,0-.51-.02-.97-.07-1.38-.07-.66-.2-1.2-.36-1.63-.1-.28-.21-.52-.33-.72-.06-.1-.12-.19-.18-.28l-1.04-1.04c.07.07.14.13.22.19-.09-.08-.16-.16-.24-.25-.07-.08-.15-.14-.22-.22-.09-.12-.17-.24-.24-.37-.05-.08-.11-.16-.16-.24-.08-.15-.13-.3-.18-.45-.03-.07-.07-.14-.09-.22-.07-.23-.11-.47-.13-.72l-18.62,50.36-13.11,35.46c-.27.72-.54,1.44-.8,2.16-.35.95-.68,1.91-1,2.87-.23.68-.45,1.35-.67,2.03-4.4,13.74-6.47,27.17-6.51,33.23-.01,1.8.13,3.05.31,3.92.07.36.15.65.23.88.06.18.12.35.18.46.02.04.03.09.04.13.04.12.08.23.11.35,3.65-.7,7.31-1.38,10.97-2.04,1.83-.33,3.66-.65,5.5-.97,18.34-3.19,36.76-5.89,54.86-8.18,14.48-1.83,28.75-3.39,42.61-4.72,3.46-.33,6.9-.65,10.31-.96,17.04-1.53,33.36-2.71,48.53-3.63,4.55-.28,9-.53,13.33-.76,1.44-.08,2.88-.15,4.3-.22,2.84-.14,5.62-.28,8.35-.4,34.13-1.57,59.6-1.76,70-1.76,28.03,0,59.63-8.19,87.72-25.56,7.02-4.34,13.83-9.25,20.3-14.76,3.88-3.3,7.65-6.81,11.27-10.54,2.42-2.49,4.77-5.07,7.05-7.74,2.28-2.68,4.49-5.45,6.63-8.32-.56.14-1.12.28-1.69.39-1.7.35-3.44.58-5.23.66-1.21-.03-2.35-.15-3.43-.35-2.46-.45-4.55-1.33-6.28-2.6-.54-.39-1.05-.81-1.51-1.27l-5.79-5.81c-1.89,2.21-3.78,4.25-5.68,6.13-3.15,3.13-6.31,5.8-9.46,7.99-1.26.88-2.52,1.68-3.77,2.41-1.26.73-2.51,1.38-3.76,1.96-2.51,1.15-5,2.01-7.49,2.55-2.53.55-4.96.84-7.18.84-1.4,0-2.73-.11-3.99-.32-3.14-.52-5.84-1.7-8.03-3.46-.44-.35-.86-.73-1.26-1.13l-8.75-8.78c.09.09.19.17.28.25-.98-.93-1.84-2-2.58-3.19-1.86-2.99-2.97-6.78-3.27-11.29-.06-.9-.08-1.84-.08-2.8h0c.01-1.16.07-2.38.18-3.65.22-2.54.62-5.3,1.21-8.23.29-1.47.63-2.98,1.01-4.54-.35.72-.7,1.42-1.03,2.07-.33.66-.66,1.28-.97,1.87-.89,1.83-1.81,3.65-2.75,5.44-6.57,12.56-14.23,24.16-22.84,34.56-2.64,3.2-5.29,6.06-7.95,8.59-1.33,1.27-2.66,2.45-4,3.55-2.67,2.2-5.36,4.08-8.07,5.64-.68.39-1.36.76-2.04,1.11-2.57,1.32-5.16,2.35-7.79,3.11-.86.25-1.72.48-2.59.67-1.16.25-2.28.44-3.36.56-.99.11-1.94.17-2.84.17-.71,0-1.48-.04-2.28-.14-.1-.01-.21-.03-.31-.04-1.5-.22-3.09-.67-4.62-1.47-1.02-.54-2-1.21-2.9-2.12l-6.99-7.02c-1.59,2.24-3.21,4.31-4.87,6.21-7.18,8.24-14.97,13.33-23.3,15.15-2.65.59-5.15.88-7.4.88-1.8,0-3.71-.19-5.59-.7-.27-.07-.54-.15-.8-.24-2.13-.69-4.19-1.83-5.96-3.6l-6.45-6.47c-.2.24-.41.51-.6.75-.64.77-1.29,1.53-1.93,2.27-1.94,2.21-3.91,4.25-5.9,6.12-.66.62-1.33,1.23-2,1.81-6.68,5.84-13.62,9.78-20.74,11.74-.71.2-1.43.37-2.14.53-.54.12-1.07.22-1.59.31-1.57.27-3.06.4-4.47.4-4.69,0-8.49-1.46-11.18-4.17l-8.75-8.78h0c.1.1.22.19.32.29-3.22-3.03-4.98-7.74-4.94-13.79h0c.01-.97.09-2.04.25-3.23.11-.79.25-1.64.42-2.54s.38-1.85.63-2.86c.12-.5.25-1.02.39-1.55.28-1.06.59-2.19.94-3.37s.74-2.42,1.16-3.72.88-2.67,1.38-4.1,1.03-2.92,1.6-4.48l18.53-51.63c.65-1.79,1.14-3.41,1.48-4.88.03-.14.06-.28.09-.42.31-1.45.48-2.75.49-3.92.02-2.13-.46-3.33-.92-4.01l-1.09-1.09s.05.04.07.06l-.03-.03-.16-.16c-.06-.07-.12-.14-.18-.21-.05-.06-.09-.12-.13-.18-.05-.08-.1-.16-.14-.24-.04-.06-.07-.13-.1-.19-.04-.08-.08-.17-.11-.25-.03-.07-.05-.13-.08-.2-.03-.09-.05-.18-.08-.27-.02-.07-.04-.13-.05-.2-.02-.1-.03-.2-.04-.29-.01-.07-.02-.13-.02-.2-.01-.11,0-.22,0-.33v-.17c.01-.17.04-.33.08-.5.04-.17.09-.34.15-.49.44-1.11,1.38-1.94,2.59-2.2l23.09-5.11c-.09-.08-.19-.16-.27-.25l-8.75-8.78h0c.14.14.29.26.43.39-1.85-1.7-3.23-3.92-4-6.5-.46-1.55-.7-3.23-.69-5.02.02-3.15.79-6.24,2.13-9.08.54-1.13,1.17-2.23,1.88-3.26.35-.52.73-1.02,1.12-1.51,3.15-3.91,7.51-6.84,12.39-7.91,1.29-.29,2.58-.43,3.83-.43,1.33,0,2.59.16,3.77.46,2.15.54,4.05,1.55,5.62,2.94.48.36.93.75,1.35,1.16.42.42.82.87,1.19,1.35l6.79,6.82c.44.44.84.93,1.22,1.44,1.69,2.25,2.76,5.1,3.02,8.38.05.57.07,1.16.06,1.76-.01,1.15-.12,2.29-.32,3.41-.71,3.93-2.54,7.65-5.14,10.71-.74.87-1.55,1.69-2.4,2.45-1.29,1.13-2.7,2.12-4.2,2.92-1,.54-2.04.99-3.12,1.36l4.99,5.01c.14.14.26.29.37.45.67.95.83,2.18.42,3.28l-27.96,76.07c.33-.3.67-.62,1-.94,2.33-2.26,4.68-5.04,7.12-8.35,2.02-2.75,4.03-5.66,5.99-8.66,1.53-6.84,3.45-15.48,6.08-22.99.2-.58.41-1.15.62-1.71.42-1.13.86-2.22,1.32-3.27,6.97-15.49,15.52-29,26.15-41.31.68-.79,1.35-1.55,2.03-2.3.41-.45.81-.88,1.22-1.31.26-.28.53-.57.79-.85.55-.58,1.1-1.14,1.65-1.69.11-.11.23-.24.34-.35.63-.63,1.27-1.24,1.9-1.84.03-.02.05-.05.08-.08,2.64-2.47,5.25-4.62,7.84-6.46l.03-.36v-.06c.01-.11.03-.22.06-.33s.07-.21.12-.31l1.72-3.42c.06-.11.13-.22.21-.32s.17-.19.27-.27l7.46-5.84c.09-.07.18-.12.27-.17.1-.05.2-.09.3-.12l5.22-1.57,4.69-12.16c-.11-.14-.21-.29-.32-.44-.08-.11-.16-.23-.23-.34-.09-.14-.17-.28-.25-.42-.09-.15-.17-.31-.24-.46-.06-.12-.12-.23-.17-.35-.13-.28-.24-.56-.34-.84h0c-.34-.83-.81-1.6-1.34-2.34-.26-.35-.52-.7-.79-1.04-.86-1.04-1.8-2.02-2.78-2.96-.98-.94-2.01-1.83-3.05-2.7-.18-.15-.37-.29-.56-.44-.81-.06-1.62-.12-2.43-.2-.92-.09-1.84-.18-2.76-.3-2.76-.36-5.51-.82-8.24-1.37-.82-.17-1.64-.36-2.45-.56-1.9-.46-3.78-.98-5.66-1.53-2.2-.66-4.38-1.38-6.55-2.17-.47-.17-.94-.32-1.41-.5-1.3-.52-2.6-1.05-3.88-1.61s-2.56-1.14-3.83-1.75c-1.26-.61-2.52-1.24-3.76-1.89-1.24-.65-2.48-1.33-3.7-2.03-2.41-1.45-4.78-2.99-7.08-4.62s-4.54-3.36-6.7-5.19c-2.11-1.84-4.13-3.81-6.05-5.87l-.06-.06c-.48-.52-.96-1.05-1.43-1.59s-.94-1.08-1.39-1.63c-.91-1.1-1.79-2.23-2.62-3.4-1.64-2.35-3.15-4.81-4.44-7.41-1.31-2.58-2.36-5.31-3.08-8.14-.19-.74-.36-1.48-.51-2.23-.5-1.85-.85-3.69-1.04-5.53-7.75-9.55-21.79-27.05-29.21-44.9-1.24-.02-2.48-.06-3.72-.17-1.45-.13-2.89-.31-4.32-.6-.3.21-.61.42-.91.63l-.15.11-.2.06-3.72,1.2-1.65.53h0l.02-1.76c0-.35.02-.69.04-1.04.1-1.49.4-2.96.85-4.37.27-.88.6-1.74.97-2.57.74-1.6,1.67-3.07,2.7-4.46.57-.77,1.17-1.51,1.8-2.22,1.1-1.2,2.28-2.3,3.52-3.33-.11-1.35-.16-2.68-.14-4s.12-2.61.3-3.89c.64-4.47,2.23-8.45,4.76-11.92.48-.66.98-1.3,1.53-1.91.31-.35.63-.7.97-1.04.67-.68,1.37-1.34,2.13-1.97.38-.32.76-.63,1.16-.93.4-.3.81-.6,1.22-.89,4.38-3.03,8.76-5.34,13.11-6.91.54-.2,1.09-.38,1.63-.55,3.8-1.21,7.58-1.86,11.32-1.94.26,0,.51,0,.77,0s.53.02.79.02c.37,0,.73,0,1.09.03.39.02.78.05,1.17.09.36.03.73.06,1.09.1.39.04.77.1,1.15.16.36.05.73.1,1.09.17.38.07.76.15,1.14.23.36.08.72.15,1.08.24.38.09.75.2,1.13.3.36.1.72.19,1.07.3.37.12.75.25,1.12.37.36.12.71.24,1.07.37.37.14.74.29,1.11.45.35.14.7.28,1.05.44.37.16.74.34,1.1.52.35.17.69.33,1.04.5.37.19.73.39,1.1.59.34.19.68.37,1.02.56.37.21.73.45,1.1.67.33.21.67.41,1,.62.37.24.73.5,1.1.76.32.23.65.44.97.68.37.27.74.56,1.11.85.31.24.63.47.94.72.38.31.76.64,1.15.96.29.25.59.49.88.75.4.35.8.73,1.19,1.1.27.25.54.49.81.75.44.42.88.87,1.32,1.32.22.22.44.44.66.67.66.68,1.31,1.39,1.96,2.12s1.16,1.35,1.61,1.9c.33.41.66.8,1.02,1.22.97,1.11,2.25,2.39,4.9,4.57,1.65,1.37,3.84,3.09,6.82,5.34.16,0,.34.02.54.04.22.02.47.05.73.08.44.06.93.13,1.48.22.58.1,1.23.21,1.93.35,1.05.2,2.23.44,3.53.72.43.09.88.19,1.33.29,3.54.77,7.8,1.78,12.56,2.95.3.07.6.15.91.22,1.71.42,3.47.86,5.29,1.32.66.17,1.33.33,2,.5,2.52.64,5.12,1.3,7.78,1.99.37.09.73.19,1.1.28,26.95,6.97,59.29,15.91,69.52,18.75,2.19.61,4.42.99,6.69,1.15l22.8,1.59h0l-1.8.99-2.2,1.21c-.25.14-.41.23-.56.31-.11.06-.2.11-.29.16-.17.09-.37.19-.71.37h.97c.23,0,.5,0,.79,0h.19c.28,0,.6,0,.92.02.57,0,1.2.02,1.88.03,1.59.03,3.41.06,5.2.1.37,0,.75,0,1.11.02h.12c.89.02,1.75.03,2.55.05.99.02,1.89.04,2.63.05.38,0,.72,0,1.01.02.64,0,1.02.02,1.02.02l4.7.03,4.7.03h.03l4.63.03h0l-2.86,1.65-1.21.7c-.16.09-.3.17-.46.26-1.28.73-2.32,1.31-3.68,2.04.47,0,.93,0,1.39,0h1.15c.57,0,1.13.02,1.69.03.63,0,1.27.02,1.91.03h.54c.63,0,1.27,0,1.93,0l22.51-.24,5.73-.06h0l-2.44,1.32-2.65,1.44c-.97.52-1.94,1.02-2.91,1.54-2.81,1.48-5.62,2.93-8.46,4.34,1.24-.33,3.01-.8,5.22-1.38.32-.08.64-.17.97-.25,1-.26,2.07-.54,3.22-.83.38-.1.77-.2,1.17-.3.79-.2,1.61-.41,2.46-.63.42-.11.86-.22,1.29-.33.88-.22,1.78-.45,2.7-.68.46-.12.93-.23,1.4-.35,3.32-.82,6.9-1.7,10.66-2.59.54-.13,1.08-.26,1.62-.38,11.42-2.7,24.24-5.52,35.7-7.55,1.09-.19,2.17-.38,3.24-.56,7.99-1.34,15.15-2.23,20.48-2.34h.11c.33,0,.65,0,.96,0h.09c.52,0,1,0,1.47.03.07,0,.14,0,.21,0,.46.02.9.05,1.32.08.08,0,.16,0,.24.02.41.04.8.08,1.17.14.06,0,.12.02.18.03.38.06.75.13,1.09.2h0c8.18,1.88,15.29,4.65,20.5,7.04.31.14.62.28.91.42.34.16.66.31.98.47.25.12.49.24.72.35,1.48.73,2.74,1.39,3.75,1.94.57.31,1.07.59,1.47.82.23.13.43.25.6.35.21.12.38.22.5.3.12.07.2.12.23.14l6.18,3.88h0l-7.09,1.03Zm-191.3,205.69c.04.06.09.12.15.18l8.75,8.78c3.54,3.55,8.36,5.35,14.34,5.35,2.32,0,4.84-.3,7.5-.88,9.9-2.17,19.96-9,29.92-20.31l4.65,4.67c2.93,2.94,7.05,4.51,12.25,4.66h.11c1.07-.05,2.16-.15,3.25-.3-36.35,46.5-90.36,63.17-129.37,63.17-24.2,0-150.5,1.13-267.75,23.41-.18-.69-.39-1.94-.38-4.02.05-7,2.84-23.97,8.88-39.76l30.6-82.74.65.66c.3.48.62,1.39.6,3.05-.02,2.26-.66,5.11-1.97,8.71l-18.58,51.47c-4.64,12.65-6.82,21.11-6.86,26.62-.05,6,1.83,10.95,5.57,14.71h0l8.75,8.78c.08.08.17.17.26.25.02.02.04.04.06.05,2.93,2.55,6.77,3.85,11.41,3.85,2.11,0,4.44-.28,6.91-.82,12.47-2.73,25.28-11.95,39.16-28.18,12.99-15.18,24.25-32.4,34.42-52.63.63-1.26,1.25-2.5,1.86-3.74l-3.43,9.55c-4.64,12.65-6.82,21.03-6.86,26.34-.05,6.06,1.65,11.02,4.9,14.39.05.06.1.12.15.18l8.75,8.78c3,3.01,7.24,4.61,12.24,4.61,2.03,0,4.18-.25,6.39-.75,11.6-2.54,22.74-10.09,33.1-22.44l5.28,5.3c3.29,3.31,7.81,4.98,13.41,4.98,2.4,0,4.99-.31,7.73-.91,10.16-2.23,19.58-9.13,28.02-20.52l5.75,5.77c3.47,3.49,8,4.22,11.18,4.22,1.96,0,4.15-.26,6.51-.77,11.61-2.56,22.49-10.14,33.28-23.19,8.66-10.46,16.37-22.13,22.98-34.76-.28,2.25-.43,4.35-.45,6.27-.05,7.72,1.99,13.9,5.93,17.96Z" style="fill: #fed600;"/>
  <path d="m450.4,160.2h0c.1.61.18,1.23.24,1.85,0,.05.01.1.02.15.05.65.09,1.3.09,1.95h0c0,.58-.03,1.14-.08,1.71-.16,1.69-.56,3.37-1.23,4.95-.23.52-.48,1.04-.76,1.53-.81,1.43-1.86,2.71-3.2,3.74-.06.05-.11.1-.17.15l-.08.06h-.11c-.11-.02-.22-.04-.33-.05l-2.25,4.68-2.35,4.9,1.81,1.78h.01c.07.08.16.18.27.29t.02.02c.35.37.83.92,1.2,1.46.45.1.88.23,1.3.37.11.04.21.08.32.12.31.11.61.23.9.37.12.06.24.11.36.17.27.14.54.28.8.44.11.06.21.12.32.19.35.23.68.46,1,.72h0c.25.16.48.34.71.52s.45.38.66.58c.43.41.82.85,1.19,1.33l1.75,1.76c.1-.36.2-.7.29-1.02.11-.4.21-.76.3-1.09.1-.39.19-.71.25-.98.01-.04.03-.1.04-.15.08-.33.2-.65.37-.94s.37-.56.61-.79c.48-.47,1.09-.81,1.76-.95l3.07-.68.74-1.11.65-.98c.07-.11.16-.21.25-.3.1-.09.2-.17.31-.23l7.81-4.48c.11-.07.23-.12.36-.15l2.99-.9,2.99-.9,5.35-12.11c-.18-.03-.35-.07-.52-.12h-.01c-.17-.05-.33-.11-.49-.17-.01-.01-.03-.01-.04-.02-.15-.07-.3-.14-.44-.22-.02-.01-.05-.03-.07-.04-.13-.08-.26-.16-.38-.24-.04-.03-.07-.06-.11-.08-.11-.08-.21-.16-.31-.25-.05-.05-.1-.1-.15-.15-.08-.08-.16-.15-.24-.24-.07-.07-.13-.15-.2-.23-.05-.06-.11-.13-.16-.19-.11-.14-.21-.29-.3-.44,0-.01-.01-.01-.01-.02-.21-.33-.37-.68-.53-1.02-.15-.34-.3-.67-.47-.98-.16-.32-.35-.63-.54-.94s-.4-.61-.6-.9c-.08-.11-.16-.2-.24-.31-.58-.79-1.21-1.54-1.87-2.27-.23-.26-.45-.52-.69-.77h0c-.51-.53-1.05-1.03-1.58-1.54-1.34.31-2.67.6-4.01.87-.06.01-.12.02-.18.04-1.26.25-2.52.49-3.78.71-.37.07-.75.12-1.12.18-.97.16-1.94.32-2.91.46-1.39.2-2.78.37-4.16.52h-.01c-1.49.17-2.96.29-4.43.38Zm20.12-1.5c.33.32.65.62.95.94,1.11,1.18,1.96,2.2,2.67,3.19.39.57.75,1.11,1.03,1.65.13.24.24.48.36.74.19.42.41.9.71,1.38.63,1.07,1.58,1.95,2.68,2.51l-4.4,9.98-5.32,1.6c-.23.07-.46.17-.67.29l-7.81,4.48c-.42.24-.79.59-1.07.99l-1.06,1.58-2.48.55c-1.91.41-3.44,1.91-3.88,3.81-.04.17-.1.39-.16.65-.8-.99-1.69-1.83-2.67-2.49-1.42-1.15-3.1-1.99-5.01-2.5-.51-.65-1.07-1.25-1.34-1.51l-1.04-1.03,3.75-7.82c.13-.05.25-.11.36-.2l.08-.06c1.96-1.45,3.51-3.48,4.61-6.03.94-2.23,1.43-4.66,1.43-7.24,0-.84-.04-1.7-.14-2.59.99-.08,1.95-.16,2.86-.26,4.94-.51,10.17-1.39,15.56-2.61Z" style="fill: #fed600;"/>
  <path d="m130.51,272.17c1.44-1.61,2.87-3.21,4.29-4.81-1.95-.27-3.71-.86-5.25-1.75-.62-.36-1.19-.77-1.73-1.22-.27-.23-.53-.47-.78-.72h-.01s-1.79-1.81-1.79-1.81c-.16.2-.32.4-.48.6-.2.25-.4.5-.6.75-1.21,1.46-2.42,2.77-3.66,3.93-1.85,1.74-3.73,3.16-5.67,4.26-1.93,1.1-3.92,1.88-5.96,2.36,4.35.56,8.68,1.3,12.98,2.25,1.43.31,2.86.65,4.29,1.01,1.48-1.63,2.93-3.25,4.37-4.85Zm-15.69.95c3.66-1.92,7.13-4.89,10.5-8.96.01-.02.03-.03.04-.05l.61.61c1.63,1.64,3.68,2.84,6,3.55-2.3,2.58-4.36,4.88-6.34,7.07-3.55-.86-7.17-1.61-10.81-2.22Z" style="fill: #fed600;"/>
  <path d="m151.75,383.59l-3.37-3.38-3.37-3.38h0s.02.01.02.02c.03.02.06.04.08.07-.18-.17-.36-.35-.5-.56-.49-.71-.7-1.58-.61-2.43.03-.28.1-.56.2-.83l17.91-49.47c.02-.09.04-.18.06-.27.02-.1.04-.19.05-.29.05-.33.07-.71.07-1.42.01-1.27-.19-2.51-.57-3.7-.13-.4-.28-.79-.45-1.18-.62-.35-1.26-.69-1.93-1.03-4.69-2.32-10.67-4.13-17.77-5.3-24.12,31.31-46.71,57.75-66.26,77.8-2.79,2.86-5.52,5.6-8.19,8.2-1.78,1.73-3.52,3.41-5.24,5.02-.86.81-1.71,1.6-2.55,2.37-4.21,3.88-8.23,7.37-12.02,10.45,4.55-1.66,9.64-3.44,15.33-5.34,1.62-.54,3.3-1.09,5.02-1.66,1.72-.56,3.5-1.13,5.32-1.71.91-.29,1.84-.58,2.78-.88,1.88-.59,3.8-1.19,5.78-1.8,9.9-3.04,21.14-6.32,33.85-9.81,3.81-1.05,7.76-2.11,11.85-3.2,6.81-1.81,14-3.67,21.6-5.58.98-.24,1.95-.47,2.91-.71Zm-97.13,26.5c23.77-20.77,54.54-55.17,87.61-98.03,7.24,1.26,13.24,3.2,17.87,5.75.48,1.25.72,2.53.71,3.82-.01.96-.04,1.19-.12,1.56l-17.88,49.39c-.57,1.53-.36,3.26.58,4.62.16.24.35.45.58.68h-.01s4.86,4.89,4.86,4.89c-.11.03-.22.05-.32.08-37.43,9.42-68.95,18.57-93.88,27.24Z" style="fill: #fed600;"/>
  <path d="m436.83,226.77c-.3.33-.6.67-.91,1.04-.62.73-1.27,1.52-1.94,2.39-.34.44-.68.89-1.03,1.36-1.05,1.42-2.17,3.02-3.35,4.82-1.99,2.95-3.88,6.02-5.7,9.2-1.18,2.05-2.33,4.13-3.43,6.27-2.81,5.45-5.38,11.17-7.7,17.14-1.39,3.59-2.55,6.94-3.51,10.06-1.08,3.52-1.89,6.74-2.42,9.65,2.76-2.63,5.67-6.55,8.7-11.73,1.01-1.73,2.04-3.6,3.08-5.6,1.64-3,3.02-5.59,4.2-7.86.39-.76.76-1.48,1.11-2.17s.68-1.35.99-1.97c.31-.63.6-1.23.87-1.8.27-.57.53-1.12.77-1.65s.46-1.04.67-1.52c.04-.09,1.46-3.21,3.31-7.72.53-1.29,1.09-2.69,1.66-4.17.29-.74.58-1.5.87-2.27s.58-1.56.87-2.35c.43-1.19.86-2.41,1.27-3.63.14-.41.27-.81.41-1.22.8-2.44,1.52-4.88,2.1-7.19-.31.28-.6.59-.89.92Zm-11,27.02c-1.65,3.84-4.21,8.89-8.55,16.86-2.66,5.14-5.24,9.36-7.69,12.61,1.09-4.12,2.62-8.72,4.56-13.72,4.6-11.84,10.21-22.71,16.68-32.32,1.17-1.78,2.31-3.42,3.42-4.91-3.09,9.52-7.38,19.17-8.38,21.38l-.04.1Z" style="fill: #fed600;"/>
  <path d="m90.65,263.08h0s.09.08.14.12c-.14-.14-.28-.27-.41-.42l-3.64,9.84c1.23-.03,2.46-.05,3.69-.05h0c3.46,0,6.92.14,10.38.39-.51-.31-.98-.68-1.41-1.1l-8.75-8.78Zm-.23,8c-.49,0-.99,0-1.52.01l2.06-5.56,5.68,5.7c-2.13-.11-4.21-.15-6.22-.15Z" style="fill: #fed600;"/>
  <path d="m166.43,297.28c1.06,1.01,2.05,2.05,2.98,3.12l1.01,1.01,22.34-59.4-10.94,14.67c-2.41,3.31-4.73,6.47-6.95,9.5-3.33,4.54-6.45,8.77-9.39,12.72-2.93,3.95-5.68,7.62-8.25,11.03,2.1,1.4,4.05,2.87,5.85,4.4,1.18.95,2.3,1.94,3.35,2.95Zm21.19-45.87l-17.76,47.23c-1.74-1.9-3.69-3.74-5.82-5.48-1.43-1.21-3-2.42-4.66-3.59,6.74-8.95,14.49-19.44,23.66-32.01l4.58-6.15Z" style="fill: #fed600;"/>
  <path d="m55.21,202.82s.05.07.08.1c.2.25.39.51.57.76.02.03.04.06.06.09.18.25.35.5.51.74.02.03.04.06.05.08.16.24.31.48.44.7,0,.02.03.04.04.07.14.22.26.43.37.63l.03.06c.11.19.21.37.3.53,0,.02,0,.03.02.04.08.16.16.3.22.41,0,.01,0,.02,0,.03.06.11.1.2.13.26t.02.05s.02.05.03.06h0s2.01-4.05,2.01-4.05l1.01-2.04c.28-.54.7-1.32,1.24-2.32.18-.33.38-.69.59-1.07.84-1.53,1.92-3.44,3.23-5.7.58-1.05,1.15-2.04,1.69-2.97.55-.93,1.08-1.8,1.58-2.61h0c-.16.03-.31.07-.46.11-.33.08-.66.15-.99.23-.22.05-.43.11-.65.17-.25.06-.51.13-.76.2-.21.06-.42.12-.63.18-.25.07-.5.14-.74.21-.2.06-.38.12-.58.18-.25.08-.5.15-.74.23-.19.06-.37.12-.56.19-.24.08-.48.16-.71.24-.19.07-.38.14-.56.2-.22.08-.45.16-.67.24-.18.07-.35.13-.52.2-.22.09-.45.17-.66.26-.17.07-.33.13-.49.2-.22.09-.43.18-.64.27-.16.07-.31.14-.47.21-.21.09-.42.18-.62.27-.15.07-.3.14-.44.21-.2.09-.4.19-.6.28-.14.07-.28.14-.42.2-.19.09-.39.19-.57.28-.14.07-.26.14-.4.21-.18.09-.37.19-.55.28-.13.07-.25.13-.37.2-.18.1-.35.19-.52.29-.12.07-.23.13-.34.2-.17.1-.34.19-.5.29-.11.06-.21.13-.32.19-.16.1-.32.19-.48.29-.1.06-.2.12-.29.19-.15.1-.3.19-.45.29-.09.06-.18.12-.27.18-.14.1-.29.19-.42.28-.08.06-.16.11-.24.17-.13.09-.27.19-.39.28-.08.06-.15.11-.22.17-.12.09-.24.18-.36.27-.07.05-.13.1-.2.16-.11.09-.22.18-.33.26-.06.05-.12.1-.18.15-.1.08-.2.17-.29.25-.05.05-.11.09-.16.14-.09.08-.18.16-.26.23-.05.05-.09.09-.14.13-.08.07-.15.14-.22.21-.04.04-.08.08-.12.13-.06.07-.13.13-.18.19-.04.04-.07.08-.1.12-.05.06-.1.12-.14.17-.03.04-.06.07-.08.11-.04.05-.08.1-.11.15-.02.03-.04.07-.06.1-.03.04-.05.08-.07.12-.02.03-.03.06-.04.09s-.03.07-.04.1,0,.05,0,.07c0,.03,0,.05,0,.07,0,.02,0,.04,0,.05,0,.02.02.04.03.05,0,.01.03.02.04.03.02.01.04.02.06.03s.05.01.07.01c.04,0,.08.01.13,0h0c.14-.01.27-.01.41-.01h.05c.33,0,.66.04.98.09.04.01.09.01.13.02.32.06.63.15.94.26.04.02.09.03.13.05.3.11.6.25.89.4.04.02.08.04.12.07.29.16.57.33.84.51.04.03.08.05.12.08.27.19.54.39.79.61.04.03.07.06.11.09.26.22.5.44.74.68l.1.1c.24.24.47.48.69.73.03.03.06.07.09.1.23.2.44.46.64.71Zm11.11-13.81c-.47.8-.94,1.64-1.42,2.51-2.64,4.55-4.31,7.67-5.07,9.12l-1.78,3.58c-1.6-2.53-4.44-6.13-8.14-7.16,2.44-2.06,8.01-5.67,16.41-8.05Z" style="fill: #fed600;"/>
  <path d="m523.06,191.85l6.22,6.24-6.22-6.24Z" style="fill: #fed600;"/>
  <path d="m13.24,417.92c-.02.54.41.94.92.94l.31-.05c22.67-8.12,66.7-52.63,117.73-118.95.17-.23.46-.36.75-.36h.13c20,3.08,32.82,11.14,32.73,22.81-.01,1.34-.06,1.83-.29,2.73l-17.97,49.61c-.22.63.24,1.22.85,1.22l.28-.04c12.11-3.7,24.37-5.54,35.09-7.83.59-.13.86-.77.62-1.31-.65-1.47-.96-3.64-.94-6.37.06-7.76,3.13-25.47,9.14-41.22l55.91-151.18c.22-.61-.26-1.23-.86-1.23l-.29.05-35.74,11.89c-.19.06-.35.18-.46.35-5.47,7.91-16.22,21.97-32.54,42.2-16.1,20.24-32.98,39.88-50.39,59.1-.17.19-.42.3-.68.3l-.23-.02c-11.97-3.11-24.04-4.62-36.09-4.62-10.65,0-21.28,1.18-31.87,3.5-30.03,6.6-45.94,22.65-46.05,37.64-.07,9.27,4.85,15.22,14.51,18.15l.26.04c.47,0,.88-.39.92-.89,1.01-15.46,19.57-26.9,45.98-32.71,10.89-2.4,22.5-3.75,34.81-3.84.81,0,1.21.99.66,1.57-40.02,42.08-76.53,72.3-95.33,76.43-2.03.45-3.93.69-5.69.69-1.19,0-2.31-.11-3.36-.35h-.19c-.64-.01-1.09.68-.82,1.29,2.06,4.52,4.05,10.9,5.61,19.39,1.93,8.65,2.72,15.77,2.58,21.07Zm130.53-133.22c7.7-10.12,16.95-22.58,27.98-37.71l28.12-37.71c5.41-7.14,10.09-12.95,13.79-17.46.21-.24.45-.35.7-.35.58,0,1.12.57.86,1.25l-42.75,113.7c-.15.4-.5.6-.86.6-.29,0-.59-.14-.77-.42-5.51-8.26-14.41-15.1-26.69-20.53-.54-.23-.73-.9-.38-1.37Z" style="fill: #fed600;"/>
  <path d="m238.63,243.43c1.8,1.42,2.68,3.69,2.66,6.89-.02,2.95-.86,6.33-2.22,10.1l-18.57,51.47c-4.38,11.91-6.58,20.15-6.62,25.23-.04,5.08,1.55,9.01,4.46,11.84,2.14,1.87,5,2.84,8.69,2.84,1.81,0,3.81-.24,6.02-.72,11.53-2.53,23.64-11.33,36.88-26.8,13.23-15.46,24.34-32.87,33.84-51.79,9.23-18.35,15.18-32.44,19.07-47.96.15-.59-.32-1.14-.89-1.14l-.19.02-25.38,5.65c-.46.11-.78.55-.72,1.02.22,1.72.41,3.24.4,4.4-.07,8.83-3.13,21.41-9.13,36.36-5.99,14.68-13.05,27.99-21.18,39.92-8.12,11.67-15.12,18.28-20.76,19.52-.65.14-1.24.22-1.76.22-2.26,0-3.31-1.36-3.29-4.19.02-2.41.84-6.06,2.49-10.43l29.27-79.65c.23-.63-.23-1.23-.85-1.23l-.27.04c-5.99,1.78-24.52,5.34-31.59,6.73-.8.17-1,1.17-.36,1.66Z" style="fill: #fed600;"/>
  <path d="m364.08,204.34c8.58-1.89,15.07-10.26,15.14-18.82.06-7.67-4.74-12.86-11.63-12.86-1.05,0-2.13.12-3.27.37-8.58,1.88-15.33,10.31-15.39,19.15-.06,7.42,4.93,12.54,11.85,12.54,1.06-.01,2.16-.13,3.3-.38Z" style="fill: #fed600;"/>
  <path d="m105.33,212.41c-3.99.88-7.75,3.34-11.29,7.36-.21.23-.45.33-.69.33-.58,0-1.12-.55-.86-1.23l15.38-40.68c.23-.6-.21-1.24-.85-1.24h-.06c-1.95.14-6.41.24-8.29.29-.53.01-.99.34-1.17.83l-33.58,90.48c-.22.61.24,1.23.86,1.23l.19-.02,9.37-2.06c.3-.06.56-.29.67-.58l11.28-30.45.05-.11c5.01-9.88,9.39-15.28,13.38-16.16.28-.06.54-.08.8-.08,1.29,0,1.97.89,1.96,2.61-.02,2.06-1.86,7.17-5.55,15.33-3.57,8.14-5.42,13.97-5.45,17.72-.04,4.59,2.01,7.44,6.16,7.44.76,0,1.58-.1,2.48-.3,4.96-1.08,9.57-4.28,14.08-9.72.98-1.19,1.93-2.42,2.86-3.69.19-.26.47-.39.74-.39.36,0,.72.2.86.6,1.66,4.34,5.33,6.8,10.62,6.8,1.39,0,2.88-.17,4.47-.52,6.42-1.41,12.48-5.03,18.32-10.78,5.78-5.58,10.3-12.02,13.71-19.25.2-.41.07-.9-.32-1.16l-1.69-1.13c-.16-.11-.32-.16-.5-.16-.34,0-.68.19-.84.54-1.92,4.12-5.18,8.64-9.57,13.5-4.75,5.26-9.86,8.43-15.18,9.61-.93.2-1.78.3-2.57.3-3.75,0-5.63-2.4-5.59-7.19.01-1.25.2-2.82.49-4.67.08-.45.46-.78.9-.78h.07c.28.02.57.04.84.04,1.05,0,2.18-.16,3.41-.42,5.45-1.2,10.43-4.22,14.93-9.07,4.63-5,6.97-10.09,7.01-15.4.04-4.96-2.06-7.42-6.37-7.42-1.04,0-2.19.13-3.48.42-7.62,1.67-14.42,7.02-20.54,15.96-5.37,8-8.38,15.38-8.99,22.32-.04.12-.07.25-.12.39-.98,1.6-1.99,3.18-3.06,4.7-2.8,4.11-5.6,6.41-8.27,7-.3.06-.59.1-.86.1-1.25,0-1.91-.81-1.9-2.51.02-2.3,1.86-7.41,5.55-15.45,3.69-8.17,5.54-13.63,5.56-16.54.03-4.38-2.87-7.01-6.99-7.01-.76,0-1.55.09-2.37.27Zm26.49,16.85c1.58-4.54,3.72-8.83,6.32-12.84,2.94-4.62,5.49-7.12,7.55-7.56.23-.05.43-.08.64-.08,1.26,0,1.88,1.04,1.87,3.02-.02,3.26-1.62,6.86-4.67,11.03-2.69,3.58-6.22,6.11-10.51,7.59l-.31.06c-.61-.01-1.09-.6-.89-1.22Z" style="fill: #fed600;"/>
  <path d="m38.77,280.85c.35,0,.69-.14.93-.47,2.35-3.13,4.42-6.01,6.28-8.76,2.28-3.34,5.16-8.31,8.67-15.22,3.5-6.9,7-14.86,10.37-23.53l13.77-35.65c4.98-12.91,10.49-20.98,16.72-24.4.17-.1.36-.14.56-.14,21.59-.59,36.94-1.89,45.9-3.85,31.84-7.23,35.08-23.51,35.16-29.28,0-.45-.34-.72-.71-.72-.19,0-.4.08-.56.26-3.68,4.43-12.96,10.02-28.97,13.54-7.06,1.54-20.12,3.52-38.88,5.68-18.76,2.18-29.38,3.87-35.39,5.19-19.82,4.35-38.64,14.62-50.14,28.52-5.75,6.96-8.66,13.89-8.71,20.93-.07,8.95,4.67,14.31,12.89,14.31,1.54,0,3.22-.18,5-.58,5.86-1.29,10.23-3.89,13.41-8.03,3.19-4.14,4.87-8.25,4.9-12.3,0-1.55-.22-2.89-.68-4-.19-.48-.62-.72-1.04-.72-.49,0-.99.31-1.14.89-1.12,4.22-4.75,7.6-9.63,8.66-.88.19-1.71.29-2.48.29-4.46,0-6.94-3.14-6.9-8.25.08-10.95,10.66-22.4,32.89-27.29,6.38-1.4,12.7-2.37,22.62-2.9h.06c1.07,0,1.58,1.35.73,2.04-3.43,2.79-6.83,6.65-9.28,9.94-1.51,1.98-3.48,5.11-5.77,9.2-2.28,3.94-3.94,7.01-5.02,9.03l-5.32,10.75-4.88,9.9c-10.18,20.44-18.48,32.87-29.25,37.01-.87.34-1.04,1.49-.26,2,2.19,1.43,4.68,3.79,7.41,7.15,2.9,3.58,4.8,6.91,5.62,9.96.16.54.64.84,1.12.84Z" style="fill: #fed600;"/>
  <path d="m455.14,284.14c-.75.17-1.42.25-2.03.25-2.63,0-3.85-1.58-3.83-4.84.02-2.67.85-5.8,2.22-9.57l29.53-80.37c.02-.06.03-.11.04-.17l-2.01-.83-4.54,1-2.7,4.86v4.15c0,.25-.06.5-.16.73l-2.35,4.98c-.29.6-.89.98-1.54.98-.09,0-.18-.01-.27-.02-.75-.12-1.33-.71-1.43-1.47l-.75-5.74c-.01-.07-.01-.15-.01-.22v-3.82c0-.14.02-.28.05-.42l.45-1.75h-.02s-1.11,2.96-1.11,2.96v3.03c0,.17-.03.34-.08.51l-2,6.43c-.22.72-.89,1.2-1.63,1.2-.05,0-.09,0-.14-.01-.8-.06-1.44-.67-1.55-1.46l-.99-7-.48-4.2c-.34.09-.6.34-.69.68-.86,3.62-5.87,20.05-6.1,20.75.28-.93.6-6.15.62-8.01.08-10.65-4.18-14.43-11.27-14.44-2,0-4.22.3-6.63.83-.84.18-1.67.42-2.51.67l-1.95,3.5v3.66c0,.26-.06.51-.17.74l-2.11,4.46c-.29.61-.91,1-1.57,1-.09,0-.18-.01-.27-.02-.76-.12-1.35-.73-1.45-1.49l-.67-5.14c-.01-.07-.01-.15-.01-.23v-2.48l-.65,1.73-.31,2.41c-.01.1-.03.19-.06.28l-1.34,4.42c-.22.74-.9,1.23-1.66,1.23h-.07c-.79-.03-1.46-.59-1.63-1.36l-.99-4.48c-4.15,3.28-8.38,7.4-12.71,12.41-10.53,12.2-18.93,25.53-25.73,40.66-3.76,8.67-6.29,20.53-7.91,27.78l-.12.29c-1.99,3.05-4.07,6.07-6.27,9.06-7.03,9.56-13.49,14.98-19.39,16.28-.75.17-1.42.25-2.03.25-2.63,0-3.85-1.58-3.83-4.85.02-2.67.85-5.79,2.22-9.56l29.47-80.16c.22-.61-.24-1.23-.86-1.23l-.2.02-31.93,7.07c-.78.17-.97,1.16-.34,1.64,1.82,1.42,2.72,3.7,2.69,6.92-.02,2.95-.86,6.33-2.22,10.1l-18.52,51.62c-4.38,11.92-6.57,20.15-6.61,24.97-.07,8.82,4.09,14.99,13.13,14.99,1.66,0,3.49-.2,5.48-.65,10.72-2.35,21.22-9.47,31.21-21.55,1.63-1.98,3.25-4.02,4.84-6.11.18-.25.46-.36.73-.36.43,0,.85.3.91.81,1.09,9.95,6.12,14.96,15,14.96,2.07,0,4.34-.28,6.82-.82,12.06-2.65,22.87-12.59,32.44-29.61.18-.34.49-.48.79-.48.49,0,.98.4.91,1.02-.13,1.11-.21,2.17-.22,3.19-.08,10.16,3.91,15.26,11.94,15.26,1.7,0,3.57-.23,5.62-.67,10.72-2.36,20.94-9.68,30.94-21.76,9.55-11.54,18.11-24.83,25.27-39.5,5.36-10.01,13.88-31.05,23.17-54.14.11-.28.35-.48.64-.55l18.94-4.4.22-.02c.67,0,1.14.75.77,1.37-19.41,33.85-30.22,63.64-30.35,80.2-.09,12.34,5.69,19.27,16.27,19.27,2.02,0,4.23-.27,6.61-.78,10.81-2.37,21.86-10.9,33.09-25.6.19-.25.47-.37.74-.37.46,0,.9.33.91.87.18,7.71,3.36,13.74,12.79,14.03h.11c16.29-.71,29.43-14.78,35.96-23.36.19-.26.46-.37.71-.37.59,0,1.15.59.86,1.29-28.86,68.59-96.29,102.44-154.76,102.44s-201.5,5.31-314.17,33.69c-94.25,23.73-126.03,39.42-133.9,43.91-.76.43-.54,1.55.31,1.7,62.6,9.98,74.22,63.67,75.8,73.18.08.46.48.75.89.75.18,0,.37-.05.54-.17,123.44-88.05,227.07-114.79,354.65-119.99,127.99-5.21,165.4-81.08,181.25-113.61,10.1-21.88,21.83-52.51,21.83-52.51l30.29-75.64c.25-.63-.22-1.25-.83-1.25h-.2s-25.35,5.61-25.35,5.61c-.31.06-.57.29-.67.59,0,0-17.28,50.75-21.91,62.2-4.63,11.45-18.47,37.05-32.04,39.78-.75.16-1.41.24-2,.24-8.25,0-1.24-15.43-.9-16.17l.02-.06,28.96-79.18c.22-.61-.24-1.23-.85-1.23l-.22.02-32.09,7.37c-.75.17-1.02,1.14-.42,1.61,4.55,3.6,2.21,11.78,2.09,12.16v.04s-13.67,38.76-13.67,38.76c-3.23,6.76-6.44,13.46-9.67,20.22-2.49,3.95-5.19,7.94-8.18,11.98-7.04,9.83-13.23,15.2-18.59,16.38-.81.17-1.54.27-2.21.27-3.58,0-5.27-2.53-5.23-7.72.07-9.63,4.46-23.95,13.43-42.77,8.5-18.04,15.95-33.84,22.92-44.99.39-.64-.07-1.41-.76-1.41l-.21.02-43.98,9.76-.2.02c-.64,0-1.12-.65-.83-1.28,1.02-2.23,2.11-4.76,3.11-7.65.21-.6-.26-1.2-.86-1.2l-.22.02c-4.92,1.11-19.89,4.5-23.32,5.28-.42.1-.71.46-.72.88-.31,17.94-6.73,45.45-15.83,65.84-5.1,10.32-10.73,20.22-17.12,29.25-6.49,9.19-12.68,14.29-18.32,15.53Zm-24.68-27.98c-1.9,4.43-4.89,10.15-8.69,17.14-7.33,14.16-13.81,21.2-19.97,22.56-.55.12-1.07.18-1.54.18-3.25,0-4.86-2.77-4.82-8.14.05-6.68,2.25-15.99,6.9-27.96,4.64-11.97,10.34-23.11,17.11-33.14,6.77-10.31,12.43-15.83,17.25-16.88.48-.11.94-.16,1.36-.16,3.08,0,4.51,2.82,4.47,8.23-.09,12.11-12.07,38.17-12.07,38.17Z" style="fill: #fed600;"/>
  <path d="m144.15,286.08c12.28,5.43,21.17,12.27,26.69,20.53.18.28.48.42.77.42.36,0,.71-.2.86-.6l42.75-113.7c.26-.69-.28-1.25-.86-1.25-.25,0-.49.11-.7.35-3.7,4.52-8.38,10.32-13.79,17.46l-28.12,37.71c-11.03,15.13-20.27,27.59-27.98,37.71-.35.46-.16,1.13.38,1.37Zm21.33-7.18c2.93-3.95,6.06-8.18,9.39-12.72,2.22-3.03,4.53-6.19,6.95-9.5l10.94-14.67-22.34,59.4-1.01-1.01c-.93-1.06-1.93-2.1-2.98-3.12-1.06-1.01-2.17-2-3.35-2.96-1.8-1.53-3.76-3-5.85-4.4,2.58-3.41,5.32-7.07,8.25-11.02Z" style="fill: #121921;"/>
  <path d="m132.71,230.47l.31-.06c4.29-1.48,7.82-4.01,10.51-7.59,3.05-4.17,4.65-7.77,4.67-11.03.02-1.99-.6-3.02-1.87-3.02-.2,0-.41.04-.64.08-2.06.45-4.61,2.94-7.55,7.56-2.61,4.01-4.75,8.3-6.32,12.84-.2.63.28,1.22.89,1.22Z" style="fill: #121921;"/>
  <path d="m438.07,209.75c-.42,0-.88.05-1.36.16-4.83,1.06-10.48,6.58-17.25,16.88-6.77,10.03-12.47,21.17-17.11,33.14-4.64,11.97-6.85,21.28-6.9,27.96-.04,5.37,1.56,8.14,4.82,8.14.47,0,.99-.06,1.54-.18,6.16-1.36,12.64-8.39,19.97-22.56,3.8-6.99,6.79-12.71,8.69-17.14,0,0,11.98-26.06,12.07-38.19.03-5.4-1.39-8.21-4.47-8.21Zm-2.47,23.27c-.13.41-.27.81-.41,1.22-.41,1.22-.84,2.43-1.27,3.63-.29.8-.58,1.58-.87,2.35-.29.77-.58,1.53-.87,2.27-.57,1.48-1.14,2.88-1.66,4.17-1.85,4.51-3.27,7.63-3.31,7.72-.21.49-.43,1-.67,1.52-.24.53-.49,1.08-.77,1.65-.27.57-.56,1.17-.87,1.8-.31.63-.64,1.28-.99,1.97s-.72,1.41-1.11,2.17c-1.18,2.27-2.56,4.86-4.2,7.86-1.04,2.01-2.07,3.88-3.08,5.6-3.04,5.18-5.94,9.1-8.7,11.73.53-2.91,1.34-6.14,2.42-9.65.96-3.12,2.12-6.47,3.51-10.06,2.32-5.97,4.89-11.69,7.7-17.14,1.1-2.14,2.26-4.22,3.43-6.27,1.82-3.17,3.71-6.25,5.7-9.2,1.18-1.8,2.3-3.4,3.35-4.82.35-.47.7-.93,1.03-1.36.67-.87,1.32-1.67,1.94-2.39.31-.36.61-.71.91-1.04.3-.33.59-.64.87-.94-.56,2.33-1.28,4.77-2.08,7.21Z" style="fill: #121921;"/>
  <path d="m419.27,197.16l-.34,4.36.2.9.27-.9.34-2.64,1.47-3.92,5.08-3.16-.9,2.74.28,5.61.26,1.97.65-1.37v-4.14l3.5-6.29,5.46-2.69,2.8.15-1.4-1.38,5.14-10.72c-1.1-.36-2.15-.87-3.1-1.53l-4.85,11.8-6.16,2.55-7.16,5.6-1.54,3.06Z" style="fill: #e5e1e6;"/>
  <path d="m435.68,160.16c-1.66.03-3.33,0-5-.06,1.68,1.16,3.3,2.47,4.82,4.03,1.02,1.13,2.03,2.33,2.83,4.02.24.52.27.58.4.82.1.21.22.41.33.6.24.38.53.73.86,1.05.65.64,1.49,1.15,2.44,1.53.48.18.97.37,1.49.51.14.04.29.07.43.1.3-.29.59-.61.86-.95.55-.68,1.07-1.42,1.48-2.23.42-.81.74-1.68,1-2.6.28-.91.49-1.87.59-2.86.14-1.24.17-2.52.14-3.84-.94.04-1.88.1-2.83.12-3.26.08-6.55-.02-9.84-.24Z" style="fill: #fed600;"/>
  <path d="m674.19,63.87c-1.54-.35-3.64-.49-6.18-.44-24.77.51-91.41,18.59-91.41,18.59-1.01-.3-2.08-.62-3.18-.94-4.23,2.05-8.48,4.04-12.77,5.98-9.64,4.4-19.46,8.41-29.35,12.23-19.83,7.51-40.15,13.93-61,18.25-10.42,2.19-20.98,3.75-31.64,4.53-10.64.79-21.41.64-32.03-.88-2.63-.35-5.36-.79-7.99-1.64-2.64-.77-5.21-1.89-7.59-3.32-4.82-2.79-8.63-7.23-10.88-12.21-2.29-5-3.14-10.45-3.18-15.77-.04-5.34.69-10.66,2.11-15.75-1,5.19-1.26,10.49-.9,15.7.42,5.19,1.54,10.36,3.93,14.87,2.38,4.49,5.95,8.27,10.4,10.6,2.2,1.19,4.56,2.11,7.01,2.7.62.14,1.22.33,1.84.44l1.88.32c1.22.26,2.57.31,3.84.48,10.34,1.17,20.81.9,31.2-.02,10.4-.95,20.73-2.74,30.98-4.9,20.48-4.45,40.6-10.68,60.36-17.86,17.94-6.55,35.67-13.83,53-21.88,0,0-24.87-.51-28.47-.7-2.47,1.3-3.92,1.99-6.44,3.2-4.68,2.25-9.43,4.39-14.25,6.34-9.62,3.96-19.49,7.33-29.56,10.01-5.04,1.3-10.14,2.43-15.27,3.33-5.14.87-10.32,1.51-15.53,1.83-6,.35-12.06.27-18.03-.4-.09.03-.18.08-.27.11-1.33.44-2.65.59-3.94.66-2.01.09-3.97-.08-5.91-.38.38.45.74.93,1.05,1.46.18.28.33.58.45.91.13.32.27.64.32,1.02.09.36.13.73.08,1.14.01.4-.13.79-.26,1.19-.15.38-.39.74-.64,1.07-.28.28-.57.6-.89.78-.32.23-.64.42-.97.56-.33.17-.66.29-.99.4-1.33.44-2.65.59-3.94.66-2.59.11-5.12-.19-7.59-.68-2.47-.5-4.88-1.2-7.19-2.25,5.03.04,9.92.58,14.65.38,1.17-.06,2.33-.18,3.38-.43,1.05-.24,1.96-.69,2.38-1.35.42-.67.39-1.8.06-2.91-.17-.71-.46-1.4-.77-2.11-.27-.05-.54-.09-.81-.14-2.47-.5-4.88-1.2-7.19-2.25,5.03.04,9.92.58,14.65.38,1.17-.06,2.33-.18,3.38-.43,1.05-.24,1.96-.69,2.38-1.35.42-.67.39-1.8.06-2.91-.13-.52-.32-1.04-.53-1.55-.37-.06-.74-.12-1.1-.2-2.47-.5-4.88-1.2-7.19-2.25,5.03.04,9.92.58,14.65.38,1.17-.06,2.33-.18,3.38-.43,1.05-.24,1.96-.69,2.38-1.35.42-.67.39-1.8.06-2.91-.13-.52-.32-1.03-.53-1.55-.7-.1-1.39-.22-2.08-.36-1.7-.34-3.37-.79-5-1.38-1-.21-2-.44-3-.69.19.02.38.02.57.04-.2-.05-.39-.09-.59-.14.4.04.81.05,1.21.08-.13-.06-.26-.1-.39-.16,5.03.04,9.92.58,14.65.38,1.17-.06,2.33-.18,3.38-.43,1.05-.24,1.96-.69,2.38-1.35.42-.67.39-1.8.06-2.91-.28-1.14-.85-2.24-1.34-3.42.94.84,1.82,1.77,2.49,2.92.18.28.33.58.45.91.13.32.27.64.32,1.02.09.36.1.84.08,1.14s-.1.78-.15.88c0,0,3.94.26,15.79-2.12,6.37-1.39,12.63-3.22,18.83-5.28,4.66-1.58,9.31-3.31,13.84-5.22l-15.88-1.39c-.7-.07-1.4-.17-2.09-.31l-8.52-1.9s-.09,0-.13-.02h.05l-.22-.05c-45.77-13.01-93.95-26.04-102.68-25.86h-.08c-12.81-9.66-12.15-10.23-15.43-13.92-9.88-11.11-20.78-16.73-32.32-16.5-7.94.16-16.18,3.1-24.59,8.93-8.27,5.73-11.23,13.62-10.89,22.37,2.12-1.45,4.34-2.76,6.71-3.71h0l7.47,9.8c1.01,1.33,1.58,2.93,1.63,4.6.06,2,.14,4.6.17,5.62h.06s-.04,0-.06,0c.01.26.02.42.02.43-1.49,1.41-3.57,2.04-5.53,2.48-1.77.38-3.57.56-5.36.67,2.21,5.11,4.96,10.2,7.93,15.08,1.54,2.52,3.13,4.97,4.74,7.34,2.74,4.05,5.52,7.85,8.1,11.24.26.34.51.66.76.99.32.42.65.85.97,1.25.08.1.16.2.24.3,1.6,2.05,3.1,3.93,4.43,5.58.09-.28.18-.56.28-.83.01-.02.02-.04.02-.06.15-.44.32-.86.51-1.29.04-.1.09-.2.14-.3.19-.41.39-.82.61-1.22l.51.05c-.08.95-.14,1.91-.16,2.87-.02.94-.02,1.93.11,2.82v.03h0c.45,5.35,2.34,10.49,5,15.13,2.66,4.66,6.07,8.86,9.85,12.67,7.6,7.62,16.71,13.58,26.3,18.4,16.77,8.28,35.57,12.68,54.31,12.26,2.77-.08,5.55-.24,8.34-.54,4.69-.49,9.4-1.29,14.11-2.32-.84-.74-1.69-1.47-2.55-2.18-2.27-1.86-4.62-3.64-7.03-5.31l.2-.3c2.85,1.08,5.48,2.53,8.08,4.08,1.27.81,2.53,1.65,3.78,2.53,1.22.91,2.41,1.88,3.58,2.92,1.18,1.03,2.27,2.18,3.31,3.49.51.67,1.02,1.35,1.48,2.15.23.35.47.89.64,1.19.11.21.22.39.33.55.48.64.66.72,1.22.78.29.02.67-.02,1.11-.14.22-.06.44-.14.66-.23.19-.07.51-.24.53-.25l2.02-1.77,3.37,5.74c.06-.06.11-.12.17-.18.76-.87,1.49-1.79,2.07-2.82.59-1.02,1.07-2.12,1.45-3.26.42-1.14.7-2.35.88-3.59.37-2.48.38-5.12.1-7.8-.26-2.69-.82-5.4-1.44-8.18l.33-.15c.7,1.51,1.33,3.07,1.87,4.65,33.74-13.21,64.59-35.27,81.74-48.8v-.14c10.36.19,20.7.28,31.03.03,10.33-.12,20.65-.5,30.94-1.13l7.72-.48,7.71-.54c2.57-.16,5.13-.45,7.7-.66,2.57-.24,5.13-.45,7.69-.77,8.52-.84,16.97-2.17,25.41-3.53l-12.94-9.88-21.64,2.12-22.51,1.91c-7.5.63-15,1.31-22.52,1.81-7.51.54-15.02,1.12-22.55,1.54l-.03-.25,89.05-9.45-.03-.02,21.49-3.14s-12.25-7.68-28.85-11.51Zm-291.58-7.08c.55-1.73,1.27-3.41,2.17-5,.93-1.57,1.98-3.1,3.3-4.4,1.32-1.29,2.88-2.37,4.61-2.94-1.38,1.19-2.55,2.46-3.61,3.82-1.04,1.38-1.96,2.85-2.82,4.36-.88,1.5-1.64,3.08-2.42,4.65l-2.3,4.83c.11-1.82.52-3.59,1.07-5.32Zm-32.09-22.91c-5.33,2.53-7.92-2.68-7.92-2.68,0,0-1.41-5.3,2.97-7.37,4.37-2.07,9.3,1.3,9.32,1.31-1.41-1.06-2.95-1.94-4.59-2.47-1.63-.51-3.38-.63-4.93,0-1.56.59-2.86,1.77-3.54,3.33-.71,1.54-.92,3.32-.83,5.08-.46-1.72-.42-3.6.21-5.34.65-1.74,2.12-3.18,3.87-3.84,1.77-.66,3.77-.53,5.44.17,1.69.68,3.18,1.75,4.38,3.06h0s.95,6.22-4.38,8.74Z" style="fill: #fed600;"/>
  <path d="m354.89,25.14c-1.2-1.31-2.69-2.38-4.38-3.06-1.68-.7-3.67-.83-5.44-.17-1.75.66-3.22,2.1-3.87,3.84-.63,1.74-.66,3.62-.21,5.34-.09-1.76.12-3.54.83-5.08.68-1.55,1.98-2.73,3.54-3.33,1.55-.64,3.3-.52,4.93,0,1.65.53,3.19,1.41,4.6,2.47-.02,0-4.95-3.38-9.32-1.31-4.38,2.08-2.97,7.37-2.97,7.37,0,0-1.02-5.13,3.1-7.09,4.12-1.95,7.34,2.13,7.34,2.13,0,0,2.02,4.66-3,7.04-5.02,2.38-7.45-2.08-7.45-2.08,0,0,2.59,5.2,7.92,2.68,5.34-2.52,4.38-8.74,4.38-8.74h0Z" style="fill: #fff;"/>
  <path d="m350.05,33.29c5.02-2.38,3-7.04,3-7.04,0,0-3.22-4.09-7.34-2.13-4.12,1.95-3.1,7.09-3.1,7.09,0,0,2.43,4.46,7.44,2.08Zm-2.85-7.89c.51-.05,1.04,0,1.53.17s.96.43,1.38.74c.42.32.8.66,1.15,1.1l-.71.47c-.46-.76-1.15-1.49-1.98-1.91-.42-.22-.88-.33-1.36-.36-.48-.04-.96.1-1.43.25.44-.21.91-.42,1.42-.46Z" style="fill: #121921;"/>
  <path d="m348.57,25.97c.83.43,1.52,1.15,1.98,1.91l.71-.47c-.35-.44-.73-.78-1.15-1.1-.42-.31-.88-.57-1.38-.74-.49-.18-1.03-.22-1.53-.17-.51.03-.99.25-1.43.46.47-.15.95-.29,1.43-.25.49.03.96.14,1.37.36Z" style="fill: #fff;"/>
  <path d="m322.11,53.28c-3.21.18-6.43.28-9.65.09-.38.25-.75.5-1.13.76,3.19-.21,6.34-.27,9.49-.39,1.96-.06,3.92-.17,5.87-.32,1.94-.2,3.87-.38,5.73-1.17,0,0-.01-.17-.02-.43-3.38.81-6.84,1.18-10.29,1.46Z" style="fill: #e5e1e6;"/>
  <path d="m327.26,52.26l5.14-.45c-.04-1.01-.11-3.61-.17-5.62-.05-1.67-.62-3.27-1.63-4.6l-7.47-9.8h0c-2.12,1.51-4.13,3.11-6.01,4.83s-3.65,3.55-5.2,5.52c-.76.99-1.5,2-2.15,3.05-.64,1.06-1.19,2.16-1.7,3.27-.74,1.69-1.21,3.46-1.45,5.26l1.82-.55c1.54-1.02,3.09-1.93,4.68-2.81,1.67-.9,3.38-1.72,5.12-2.45,1.76-.7,3.56-1.34,5.42-1.75,1.85-.42,3.79-.63,5.65-.36-1.87.13-3.64.69-5.35,1.33-1.71.67-3.37,1.45-4.98,2.33-1.62.86-3.21,1.79-4.76,2.78-.53.33-1.06.67-1.58,1.02l9.44-.63c1.72-.08,3.45-.24,5.18-.37Zm-8.85-14.48c-1.49,1.56-2.96,3.13-4.32,4.8-1.4,1.64-2.67,3.37-3.88,5.14-1.18,1.8-2.22,3.68-3.13,5.66.57-2.1,1.49-4.1,2.57-6,1.12-1.88,2.42-3.64,3.79-5.34,1.43-1.65,2.92-3.25,4.52-4.72,1.6-1.47,3.27-2.88,5.07-4.1-1.58,1.49-3.12,3-4.62,4.56Z" style="fill: #e5e1e6;"/>
  <path d="m322.11,53.28c3.45-.27,6.91-.65,10.29-1.46.02,0,.04,0,.06,0h-.06l-5.14.45c-1.73.13-3.46.29-5.19.38l-9.44.63s-.11.07-.16.1c3.2.19,6.43.09,9.64-.09Z" style="fill: #fff;"/>
  <path d="m313.43,42.03c-1.36,1.7-2.67,3.46-3.79,5.34-1.08,1.9-2,3.9-2.57,6,.9-1.98,1.95-3.86,3.13-5.66,1.21-1.78,2.49-3.51,3.88-5.14,1.36-1.67,2.83-3.24,4.32-4.8,1.5-1.56,3.04-3.07,4.62-4.56-1.8,1.22-3.47,2.62-5.07,4.1-1.6,1.48-3.08,3.08-4.52,4.72Z" style="fill: #fff;"/>
  <path d="m458.3,93.87c-.15.38-.39.74-.64,1.07-.18.18-.37.37-.57.53,5.29.1,10.59-.18,15.83-.76,5.1-.54,10.17-1.37,15.19-2.41,5.03-1,10.02-2.24,14.95-3.64,9.9-2.73,19.6-6.16,29.17-9.94,8.06-3.23,16.04-6.75,23.81-10.6,0,0-26.23-.97-26.33-.98-1.71.84-2.24,1.05-3.99,1.8-3.05,1.32-6.14,2.56-9.28,3.65-6.27,2.24-23.89,6.16-36.1,5.62-1.78,1.72-6.06,2.28-7.16,2.34-1.5.06-2.98-.02-4.44-.19.22.29.43.6.62.92.18.28.33.58.45.91.13.32.27.64.32,1.02.09.36.13.73.08,1.14.01.4-.13.79-.26,1.19-.15.38-.39.74-.64,1.07-.28.28-.57.6-.89.78-.32.23-.64.42-.97.56-.33.17-.66.29-.99.4-1.33.44-2.65.59-3.94.66-1.83.08-3.62-.05-5.38-.31.21.28.41.57.58.88.18.28.33.58.45.91.13.32.27.64.32,1.02.09.36.13.73.08,1.14,0,.42-.13.82-.27,1.22Z" style="fill: #fed600;"/>
  <path d="m386.26,52.62c.86-1.51,1.78-2.98,2.82-4.36,1.07-1.36,2.23-2.63,3.61-3.82-1.73.57-3.29,1.66-4.61,2.94-1.33,1.29-2.38,2.82-3.3,4.4-.9,1.6-1.62,3.28-2.17,5-.55,1.73-.96,3.5-1.07,5.32l2.3-4.83c.79-1.57,1.54-3.15,2.42-4.65Z" style="fill: #121921;"/>
  <path d="m480.34,183.18l6.92-12.56-1.81-3.24c-.52.25-1.07.47-1.62.62l-6.32,14.51-7.05,2.13-7.59,4.05-2.5,4.08.5,4.39.41,2.88.72-2.31v-3.37l2.09-4.16,5.53-2.7-1.7,6.66v3.58s.33,2.58.33,2.58l.9-1.9v-4.62l3.95-7.1,5.79-1.01,3.58,1.2,3.3,2.94-2.38-4.55-3.05-2.1Z" style="fill: #e5e1e6;"/>
</svg>