<?xml version="1.0" encoding="UTF-8"?>
<svg id="Layer_1" data-name="Layer 1" xmlns="http://www.w3.org/2000/svg" width="113.4" height="148.2" viewBox="0 0 113.4 148.2">
  <path d="m80,31.6c-10.4-10.4-20.4-20.4-23.3-31.6-3,11.2-12.9,21.1-23.3,31.6C17.8,47.2,0,64.9,0,91.5c0,31.3,25.4,56.7,56.7,56.7s56.7-25.4,56.7-56.7h0c0-26.6-17.8-44.3-33.4-59.9M24.1,104.7c-3.5-.1-16.3-22.2,7.5-45.8l15.8,17.2c.5.5.5,1.4,0,1.9l-.1.1c-3.8,3.9-19.8,19.9-21.8,25.5-.5,1.1-1.1,1.1-1.4,1.1m32.6,29.1c-10.8,0-19.5-8.7-19.5-19.5h0c.1-4.7,1.8-9.3,4.9-12.9,3.5-4.3,14.6-16.4,14.6-16.4,0,0,11,12.3,14.6,16.4,3.2,3.5,4.9,8.2,4.9,12.9,0,10.8-8.8,19.5-19.5,19.5m37.3-31.6c-.4.9-1.4,2.5-2.7,2.5-2.3.1-2.5-1.1-4.2-3.6-3.7-5.5-36.2-39.5-42.3-46-5.3-5.8-.8-9.8,1.4-12,2.7-2.7,10.5-10.5,10.5-10.5,0,0,23.3,22.1,32.9,37.1s6.4,28.2,4.4,32.5" style="fill: #179bd7;"/>
</svg>